<?xml version="1.0" encoding="UTF-8"?>
<svg id="Layer_2" data-name="Layer 2" xmlns="http://www.w3.org/2000/svg" viewBox="0 0 300 81.37">
  <g id="Layer_1-2" data-name="Layer 1">
    <g>
      <path d="M28.93,59.74c0,2.52-.08,2.76-.98,3.07-1.77.63-5.87,1.22-9.49,1.22-9.05,0-13.5-2.36-16.26-6.3-1.5-2.13-2.2-5.16-2.2-7.6,0-5.47,2.95-8.9,6.85-10.9,3.7-1.85,7.91-2.05,11.38-2.05,2.01,0,5.39.31,6.73.47,1.3.16,2.13.24,3.27.28.2,0,.35.16.28.51-.08.43-.39,3.46-.39,7.95,0,.63-.2.83-.51.83-.24,0-.39-.24-.47-.71-.08-.63-.16-1.06-.43-1.89-.87-2.6-4.57-4.01-8.19-4.01s-5.55,1.57-6.38,3.03c-.98,1.77-1.34,3.42-1.34,6.34,0,5.47,2.05,10.63,6.61,10.63.59,0,.98-.04,1.46-.24.12-.08.35-.28.35-.91v-4.68c0-2.09-.35-2.99-2.48-3.19-.47-.04-.83-.2-.83-.47,0-.2.08-.47.79-.47,1.89,0,6.93.12,7.44.12.83,0,3.42-.12,6.26-.12.83,0,.98.16.98.43,0,.31-.43.47-.87.51-1.18.16-1.42.75-1.5,2.56-.08,1.42-.08,2.87-.08,4.68v.91Z" fill="#fff"/>
      <path d="M31.41,50.41c0-6.34,5-13.23,16.22-13.23,10.39,0,15.94,6.22,15.94,12.91,0,8.58-6.14,13.93-15.82,13.93-10.98,0-16.34-5.98-16.34-13.62ZM48.1,60.6c2.36,0,4.72-.94,4.72-8.86,0-4.72-1.06-11.14-5.94-11.14-2.16,0-4.68,1.06-4.68,8.23,0,6.14,1.38,11.77,5.9,11.77Z" fill="#fff"/>
      <path d="M196.34,44.15c0-6.61,0-7.92-.19-9.09-.19-1.55-.87-1.89-2.58-2.04-.68-.05-1.07-.24-1.07-.58,0-.29.1-.53,1.12-.53,2.14,0,7.82.15,7.97.15.1,0,7.77-.15,9.67-.15.92,0,1.12.24,1.12.53,0,.34-.24.58-1.07.58-2.28.05-2.58.87-2.72,3.11-.1,1.36-.19,3.55-.19,8.02v7.43c0,2.09,0,6.8.19,8.6.19,1.55.44,2.43,2.96,2.58.73,0,1.17.15,1.17.53,0,.34-.19.58-1.17.58-3.79,0-9.72-.15-9.96-.15s-6.51.15-8.02.15c-.78,0-1.12-.15-1.12-.53,0-.49.58-.58,1.17-.58,2.09-.1,2.24-.73,2.48-2.77.19-1.75.24-5.25.24-8.41v-7.43Z" fill="#fff"/>
      <path d="M211.55,63.88c-.97,0-1.07-.29-1.07-.53,0-.34.39-.58.92-.58,2.92-.15,2.96-.87,3.06-4.47.24-9.09.15-21.09.49-25.27.1-1.26.44-1.7,1.07-1.7.44,0,1.26.39,2.09.97,2.09,1.46,9.13,6.56,12.97,9.09,6.07,4.03,8.07,5.54,8.94,6.12-.05-3.74-.05-6.9-.24-10.64-.15-2.58-.44-3.64-3.11-3.79-.78-.05-1.02-.29-1.02-.63s.19-.53,1.07-.53c1.65,0,3.79.15,6.46.15,1.41,0,3.84-.15,5.73-.15.87,0,1.02.15,1.02.49s-.29.53-.97.63c-2.04.19-2.23.73-2.43,3.45-.34,5-.29,21.09-.63,25.7-.15,1.99-.53,2.28-1.07,2.28-1.02,0-2.62-1.12-4.42-2.33-10.06-6.85-12.73-9.09-19.24-13.8l.24,9.62c.1,4.03.24,4.62,3.16,4.81.78,0,1.02.29,1.02.53,0,.39-.19.58-1.07.58-1.26,0-3.89-.15-6.46-.15-1.51,0-4.86.15-6.51.15Z" fill="#fff"/>
      <path d="M284.63,59.17c0,3.11-.1,3.4-1.21,3.79-2.19.78-7.24,1.51-11.71,1.51-11.18,0-16.67-2.92-20.07-7.77-1.85-2.62-2.72-6.37-2.72-9.38,0-6.75,3.64-10.98,8.45-13.46,4.57-2.28,9.77-2.53,14.04-2.53,2.48,0,6.66.39,8.31.58,1.6.19,2.62.29,4.03.34.24,0,.44.19.34.63-.1.53-.49,4.28-.49,9.82,0,.78-.24,1.02-.63,1.02-.29,0-.49-.29-.58-.87-.1-.78-.19-1.31-.53-2.33-1.07-3.21-5.64-4.96-10.11-4.96s-6.85,1.94-7.87,3.74c-1.21,2.19-1.65,4.23-1.65,7.82,0,6.75,2.53,13.12,8.16,13.12.73,0,1.21-.05,1.8-.29.15-.1.44-.34.44-1.12v-5.78c0-2.58-.44-3.69-3.06-3.94-.58-.05-1.02-.24-1.02-.58,0-.24.1-.58.97-.58,2.33,0,8.55.15,9.18.15,1.02,0,4.27.1,7.77.1,1.02,0,13.53-.04,13.53-.04,0,0-15.18,1.88-15.28,4.12-.1,1.75-.1,3.55-.1,5.78v1.12Z" fill="#fff"/>
      <path d="M66.49,41.24c0-7.58.32-9.32-.24-10.79-.33-.87-1.22-1.74-1.89-2.21,0,0-3.23-2.33-8.18-3.84-1.92-.59-7.08-1.16-7.08-1.16,0,0,1.64-.13,5.37.23,8.73.85,15.28,3.83,17.33,3.83,2.43,0,7.58-.15,10.25-.15,6.32,0,9.04.73,10.45,1.21,4.08,1.41,6.32,4.23,6.32,8.21,0,4.47-3.01,7.58-6.95,9.52,2.14,3.55,5.83,9.67,10.06,14.38,1.65,1.85,2.62,2.24,4.42,2.28.87,0,1.21.19,1.21.58s-.44.58-1.31.58l-7.34-.05c-5.1,0-7.05-.39-8.99-1.51-1.46-.83-2.48-1.94-4.23-4.81-1.46-2.38-3.21-6.12-4.03-7.73-.1-.19-.19-.24-.39-.24l-2.38-.05c-.1,0-.19.05-.19.19v2.58c0,2.38.1,5.25.24,7.29.19,2.53,1.07,3.01,3.6,3.16.87.05,1.21.24,1.21.58,0,.53-.58.53-1.46.53-4.18,0-10.35-.15-10.59-.15s-6.51.15-8.21.15c-.97,0-1.36-.15-1.36-.53,0-.44.58-.58,1.21-.58,2.53-.1,2.77-1.02,2.92-3.4.15-2.04.24-5.98.24-9.57v-8.55ZM78.69,43.23c0,.44.05.83.39,1.07.83.58,3.01.73,3.98.73,1.31,0,1.94-.15,2.62-.68.58-.49,1.65-1.85,1.65-4.71,0-6.9-4.81-8.02-6.75-8.02-.63,0-1.02,0-1.55.1-.24.05-.34.24-.34.44v11.08Z" fill="#ce9b4a"/>
      <path d="M107.93,14.52c-2.79-1.27-5.67-1.4-5.67-2.01,0-.26.55-.62,2.87-1.02-.38-.23-3.65-2.14-6.69-.63-.29.14-1.15.58-1.8,1.45-.48.64-.77,1.42-.88,2.28-.11.86-.04,1.8.19,2.77-.84-1.67-1.49-2.46-1.97-2.36-.51.1-.81,1.25-.89,3.42-.22-.19-.42-.34-.57-.44-.2,0-.37.16-.52.3-.45.43-1.37,1.35-1.8,1.8-.16.19-.41.41-.25.65.13.15.27.32.45.51-1.6,1.02-2.99,1.86-4.13,2.53-.4.23-.77.45-1.27.42-1.39-.09-2.36-2.05-2.68-3.17-.65-2.21.3-4.19.65-4.84-5.56-5.4-11.12-10.79-16.68-16.19.23,1.7.75,4.15,2.07,6.84,1.54,3.13,3.5,5.26,4.85,6.51-.94,3.41-.95,6.11-.79,7.94.29,3.47,1.32,5.18,1.34,8.9,0,2.44-.43,4.44-.78,5.7.11-.16,1.09-1.6,2.76-1.65,1.51-.04,2.47,1.07,2.77,1.41,1.55,1.79,1.04,4.34.76,5.34.22-.57.74-1.56,1.71-1.85,1.56-.47,3.3,1.16,3.57,1.42l.04.04c.93.89,1.19,2.07,1.2,3.16.04-.29.27-1.91,1.36-2.42,1.28-.6,3.58.43,4.72,3.08.95-.58,3.91-2.23,7.78-1.72,5.89.79,8.75,5.9,9.05,6.46-.82-2.51-1.64-5.02-2.46-7.54-4.71-1.26-7.53-3.24-9.28-4.9,0,0-.33-.32-4.27-4.47,2.33-4.33,3.25-4.45,3.25-4.45.14-.02.3-.01.48.03.35.52-1,1.29-.87,1.7,1.43,1.47,6.47,5.37,7.91,6.69,1.71,2,5.28,6.34,6.45,7.72.42.52.87-.36,1.4-.04.84.51,1.54,1.58,2.36,2.16.68.43.93-.23,1.32.13,2.35,2.16,7.48,6.93,8.89,8.23,2.27,2.42,6.92,7.38,8.41,9.09.13.25-.02.42.01.67.02.17.14.37.4.62,1.06,1.07,3.62,3.61,4.45,4.46.47.43-.14.88-.28,1.3-.05.19.03.37.23.59.91.92,2.07,2.07,3.03,3.03.71.77,1.56,1.27,1.64,2.28.16.81.29,1.77.47,2.55.11.43.23.5.56.56,1.69.3,9.06,1.61,10.13,1.78.16.02.23,0,.22-.18-.14-.96-1.49-8.75-1.78-10.48-.04-.18-.06-.35-.22-.43l-.03-.02c-.75-.24-1.82-.29-2.63-.45-.96-.14-1.01-.27-1.74-1-1.15-1.15-2.53-2.53-3.65-3.64-.67-.81-1.23.71-1.88.04-.85-.82-3.39-3.38-4.46-4.45-.37-.38-.58-.46-.95-.37-.16.04-.35-.02-.49-.14-1.13-1.04-5.56-5.16-7.63-7.08-2.45-2.27-6.42-6.82-9.54-10.11-.36-.4.29-.64-.13-1.32-.3-.43-.72-.78-1.09-1.16-.43-.52-1.34-1.03-1.08-1.74.06-.17.18-.32.21-.46.05-.16-.05-.29-.18-.39-1.08-.83-5.04-3.83-6.92-5.26-.66-.53-.98-.65-1.41-1.23-.79-1.03-3.87-5.09-5.31-6.99.02-.14.07-.24.16-.3.64-.4,2.87,2.05,3.32,2.55-1.46-3.25-.1-6.81,2.45-7.96,1.85-.84,4.22-.37,5.97,1.16-1.27-1.88-3.23-4.1-6.19-5.45ZM93.13,41.86c-.8-1.07-1.83-1.88-2.95-2.31-1.16-.44-2.32-.43-3.28.02-.02,0-.04.02-.06.03-.12-.14-.25-.28-.39-.41l-.05-.05c-.73-.7-2.52-2.15-4.55-2.02-.2-.94-.61-1.91-1.36-2.77-1.25-1.41-2.67-2.1-4.25-2.05-.05,0-.1,0-.15,0,.07-.73.1-1.46.1-2.18,0-2.3-.37-3.91-.73-5.46-.26-1.14-.5-2.2-.62-3.59-.2-2.34.05-4.78.73-7.28l-.54-1.88c-1.71-1.58-3.11-3.41-4.18-5.44l6.5,6.31c-.66,2.44-.89,4.84-.7,7.13.12,1.38.36,2.45.62,3.59.35,1.55.72,3.16.73,5.46,0,.73-.03,1.46-.1,2.18.05,0,.1,0,.15,0,1.58-.04,3,.64,4.25,2.05.75.86,1.16,1.82,1.36,2.77,2.03-.13,3.82,1.32,4.55,2.02l.05.05c.14.13.27.27.39.41.02-.01.04-.02.06-.03.97-.45,2.13-.46,3.28-.02,1.13.43,2.15,1.24,2.95,2.31.91-.4,2.01-.78,3.26-1,.49.35,1,.69,1.53,1-2.69-.22-4.98.44-6.62,1.16Z" fill="#516d89"/>
      <path d="M110.86,58.49c-.34,0-.44.05-.58.39-.44,1.07-.78,1.7-.78,2.33,0,.87.24,1.41,2.58,1.55.83,0,1.12.19,1.12.58,0,.44-.49.53-1.21.53-2.72,0-3.35-.15-7-.15-.92,0-3.4.15-5.73.15-.63,0-1.12-.15-1.12-.58,0-.29.24-.53,1.02-.53,1.41-.05,2.19-.53,3.98-3.55l12.24-23.23c1.75-3.3,2.62-4.86,3.45-4.86.73,0,1.17.83,3.26,4.71.44.78,8.31,16.03,11.22,21.87,1.94,3.89,2.53,4.81,5,5.05.97.05,1.21.34,1.21.63,0,.34-.34.49-1.36.49-6.56,0-13.8-.05-16.03-.19-.87-.05-1.07-.19-1.07-.44,0-.29.34-.53.73-.63.49-.1.53-.39.39-.73l-1.6-3.16c-.05-.19-.15-.24-.39-.24h-9.33ZM118.39,53.33c.24,0,.19-.15.15-.19l-2.77-6.22c-.1-.19-.19-.29-.34,0l-2.92,6.17c-.05.1,0,.24.19.24h5.68Z" fill="#ce9b4a"/>
      <path d="M141,19.97c1.76-1.53,4.12-2,5.97-1.16,2.55,1.16,3.92,4.71,2.45,7.96.44-.5,2.68-2.95,3.32-2.55.09.05.14.16.16.3-1.44,1.9-4.52,5.95-5.31,6.99-.42.58-.75.69-1.41,1.23-1.88,1.43-5.84,4.43-6.92,5.26-.13.1-.22.23-.18.39.03.14.15.29.21.46.26.71-.65,1.22-1.08,1.74-.37.39-.79.73-1.09,1.16-.43.68.22.92-.13,1.32-3.12,3.3-7.09,7.84-9.54,10.11-2.07,1.92-6.51,6.04-7.63,7.08-.14.13-.33.18-.49.14-.38-.09-.58,0-.95.37-1.07,1.06-3.61,3.62-4.46,4.45-.66.66-1.21-.85-1.88-.04-1.12,1.11-2.5,2.49-3.65,3.64-.73.73-.79.86-1.74,1-.82.16-1.88.21-2.63.45l-.03.02c-.16.09-.18.26-.22.43-.29,1.73-1.64,9.52-1.78,10.48,0,.17.06.19.22.18,1.07-.17,8.44-1.48,10.13-1.78.33-.07.46-.13.56-.56.18-.78.31-1.74.47-2.55.08-1.01.93-1.51,1.64-2.28.95-.95,2.12-2.11,3.03-3.03.2-.22.29-.39.23-.59-.14-.43-.75-.87-.28-1.3.83-.85,3.39-3.39,4.45-4.46.26-.25.38-.45.4-.62.03-.25-.11-.43.01-.67,1.5-1.72,6.14-6.67,8.41-9.09,1.41-1.3,6.53-6.07,8.89-8.23.39-.36.64.29,1.32-.13.83-.58,1.53-1.65,2.36-2.16.53-.32.98.55,1.4.04,1.17-1.39,4.74-5.73,6.45-7.72,1.44-1.32,6.48-5.23,7.91-6.69.13-.41-1.22-1.18-.87-1.7.18-.04.34-.04.48-.03,0,0,.92.12,3.25,4.45-3.94,4.16-4.27,4.47-4.27,4.47-1.75,1.66-4.57,3.64-9.28,4.9-.82,2.51-1.64,5.03-2.46,7.54.3-.56,3.15-5.68,9.05-6.46,3.87-.52,6.84,1.14,7.78,1.72,1.14-2.65,3.44-3.68,4.72-3.08,1.09.51,1.32,2.13,1.36,2.42,0-1.09.27-2.26,1.2-3.16l.04-.04c.27-.26,2.01-1.89,3.57-1.42.97.29,1.48,1.28,1.71,1.85-.28-1-.8-3.55.76-5.34.3-.34,1.26-1.45,2.77-1.41,1.68.05,2.66,1.49,2.76,1.65-.35-1.27-.79-3.26-.78-5.7.01-3.72,1.04-5.43,1.34-8.9.16-1.83.14-4.53-.79-7.94,1.35-1.25,3.31-3.37,4.85-6.51C188.09,4.15,188.62,1.7,188.84,0c-5.56,5.4-11.12,10.79-16.68,16.19.35.65,1.3,2.62.65,4.84-.32,1.12-1.29,3.08-2.68,3.17-.5.03-.87-.18-1.27-.42-1.14-.67-2.54-1.51-4.13-2.53.17-.19.32-.37.45-.51.15-.25-.09-.47-.25-.65-.43-.45-1.35-1.37-1.8-1.8-.15-.14-.33-.31-.52-.3-.15.1-.34.25-.57.44-.08-2.18-.38-3.32-.89-3.42-.48-.1-1.13.69-1.97,2.36.23-.97.3-1.92.19-2.77-.11-.86-.4-1.64-.88-2.28-.65-.87-1.51-1.31-1.8-1.45-3.04-1.51-6.31.41-6.69.63,2.32.4,2.86.75,2.87,1.02,0,.61-2.88.74-5.67,2.01-2.96,1.35-4.92,3.57-6.19,5.45ZM155.37,40.7c.53-.31,1.04-.65,1.53-1,1.26.22,2.36.6,3.26,1,.8-1.07,1.82-1.88,2.95-2.31,1.15-.44,2.32-.43,3.28.02.02,0,.04.02.06.03.12-.15.25-.28.39-.41l.05-.05c.73-.7,2.52-2.15,4.55-2.02.2-.95.61-1.91,1.36-2.77,1.25-1.41,2.67-2.1,4.25-2.05.05,0,.1,0,.15,0-.07-.73-.1-1.46-.1-2.18,0-2.3.37-3.91.73-5.46.26-1.14.5-2.2.62-3.59.19-2.29-.04-4.69-.7-7.13l6.5-6.31c-1.07,2.03-2.47,3.86-4.18,5.44l-.54,1.88c.69,2.5.93,4.94.73,7.28-.12,1.38-.36,2.45-.62,3.59-.35,1.55-.72,3.16-.73,5.46,0,.73.03,1.46.1,2.18-.05,0-.1,0-.15,0-1.58-.04-3,.64-4.25,2.05-.75.86-1.16,1.83-1.36,2.77-2.03-.13-3.82,1.32-4.55,2.02l-.05.05c-.14.13-.26.27-.39.41-.02,0-.04-.02-.06-.03-.96-.45-2.13-.46-3.28-.02-1.13.43-2.15,1.24-2.95,2.31-1.64-.72-3.93-1.38-6.62-1.16Z" fill="#516d89"/>
      <path d="M139.04,44.15c0-6.61,0-7.92-.19-9.09-.19-1.55-.87-1.89-2.58-2.04-.68-.05-1.07-.24-1.07-.58,0-.29.1-.53,1.12-.53,2.14,0,7.82.15,7.97.15.1,0,7.77-.15,9.67-.15.92,0,1.12.24,1.12.53,0,.34-.24.58-1.07.58-2.28.05-2.58.87-2.72,3.11-.1,1.36-.19,3.55-.19,8.02v7.43c0,2.09,0,6.8.19,8.6.19,1.55.44,2.43,2.96,2.58.73,0,1.17.15,1.17.53,0,.34-.19.58-1.17.58-3.79,0-9.72-.15-9.96-.15s-6.51.15-8.02.15c-.78,0-1.12-.15-1.12-.53,0-.49.58-.58,1.17-.58,2.09-.1,2.24-.73,2.48-2.77.19-1.75.24-5.25.24-8.41v-7.43Z" fill="#ce9b4a"/>
      <path d="M157.95,44.2c0-6.07-.05-7.24-.19-8.6-.15-2.14-.78-2.43-3.06-2.62-.63-.05-.97-.24-.97-.53,0-.24.15-.53.97-.53.39,0,5.49.15,8.45.15,1.8,0,4.42-.1,8.89-.1,9.47,0,13.27,1.65,16.76,4.91,2.33,2.14,4.32,5.93,4.32,10.54,0,5.25-2.04,9.57-5.3,12.29-3.16,2.67-7.68,4.37-15.01,4.37-3.01,0-7.29-.34-10.64-.34-2.14,0-4.28.15-7,.15-.78,0-1.26-.15-1.26-.58s.58-.53,1.21-.53c2.23-.1,2.43-1.21,2.58-2.92.15-2.33.24-5.34.24-8.45v-7.19ZM170,47.8c0,4.47.05,6.95.1,7.73.1,1.7.05,2.87.63,3.55.63.78,1.75,1.12,2.92,1.12,1.51,0,3.5-.44,5-2.72,1.55-2.43,1.85-5.2,1.85-8.55,0-2.87-.44-6.46-2.19-9.38-1.8-2.96-4.62-3.64-6.75-3.64-.44,0-.97.05-1.21.15-.24.1-.29.39-.29.68,0,1.46-.05,3.64-.05,6.37v4.71Z" fill="#ce9b4a"/>
    </g>
  </g>
</svg>