<?xml version="1.0" encoding="UTF-8"?>
<svg id="Layer_1" data-name="Layer 1" xmlns="http://www.w3.org/2000/svg" viewBox="0 0 512 512">
  <path d="M211.27,139.61c-12.4-5.64-25.23-6.21-25.2-8.93.01-1.17,2.44-2.74,12.76-4.52-1.69-1.01-16.25-9.53-29.78-2.81-1.29.64-5.1,2.58-8,6.46-2.13,2.84-3.41,6.31-3.91,10.13-.5,3.82-.19,8.01.84,12.34-3.73-7.44-6.64-10.93-8.76-10.5-2.27.46-3.61,5.54-3.97,15.23-.99-.84-1.85-1.5-2.52-1.96-.87-.01-1.66.71-2.33,1.35-1.99,1.9-6.07,5.99-7.98,7.98-.71.83-1.81,1.81-1.13,2.9.56.65,1.21,1.42,1.99,2.28-7.1,4.52-13.3,8.27-18.38,11.24-1.78,1.04-3.44,1.99-5.64,1.85-6.19-.41-10.5-9.14-11.94-14.1-2.9-9.84,1.32-18.62,2.87-21.51-24.73-24.01-49.47-48.01-74.19-72.03,1.01,7.56,3.33,18.47,9.2,30.44,6.83,13.94,15.57,23.39,21.57,28.95-4.16,15.16-4.22,27.18-3.53,35.32,1.3,15.44,5.88,23.04,5.94,39.57.03,10.87-1.9,19.73-3.47,25.36.47-.71,4.83-7.11,12.3-7.32,6.71-.19,10.99,4.74,12.33,6.25,6.9,7.94,4.62,19.32,3.36,23.75.99-2.53,3.27-6.92,7.59-8.21,6.95-2.09,14.68,5.17,15.9,6.33l.18.18c4.12,3.97,5.3,9.21,5.33,14.04.16-1.29,1.2-8.52,6.03-10.77,5.69-2.67,15.91,1.93,20.99,13.7,4.21-2.58,17.39-9.93,34.62-7.63,26.22,3.5,38.9,26.25,40.24,28.74-3.64-11.17-7.29-22.34-10.95-33.53-20.93-5.58-33.51-14.4-41.27-21.78,0,0-1.47-1.41-18.98-19.9,10.38-19.24,14.47-19.78,14.47-19.78.64-.07,1.33-.06,2.13.12,1.57,2.31-4.44,5.72-3.87,7.54,6.34,6.52,28.78,23.9,35.17,29.78,7.61,8.89,23.48,28.19,28.7,34.35,1.88,2.3,3.87-1.59,6.24-.16,3.73,2.28,6.83,7.01,10.52,9.6,3.02,1.9,4.12-1.01,5.87.59,10.46,9.63,33.27,30.84,39.53,36.62,10.09,10.77,30.77,32.81,37.42,40.44.56,1.1-.09,1.87.06,2.99.09.74.64,1.64,1.78,2.76,4.73,4.76,16.12,16.06,19.79,19.82,2.1,1.93-.61,3.9-1.23,5.79-.24.86.13,1.64,1.04,2.61,4.04,4.07,9.23,9.23,13.47,13.47,3.14,3.44,6.93,5.66,7.27,10.15.73,3.6,1.3,7.88,2.09,11.33.47,1.93,1.02,2.21,2.5,2.5,7.51,1.32,40.31,7.16,45.07,7.91.73.07,1.02-.01.99-.79-.64-4.28-6.64-38.93-7.93-46.62-.16-.79-.27-1.54-.98-1.93l-.15-.09c-3.35-1.07-8.07-1.29-11.72-2-4.25-.61-4.5-1.19-7.75-4.43-5.11-5.11-11.24-11.27-16.22-16.19-2.98-3.6-5.45,3.14-8.37.19-3.78-3.66-15.08-15.05-19.84-19.78-1.64-1.67-2.56-2.06-4.24-1.66-.73.16-1.56-.07-2.18-.64-5.01-4.62-24.74-22.96-33.95-31.5-10.9-10.1-28.58-30.33-42.44-44.99-1.59-1.76,1.3-2.84-.59-5.87-1.32-1.91-3.21-3.45-4.84-5.17-1.93-2.31-5.97-4.58-4.81-7.75.28-.76.79-1.41.93-2.03.21-.71-.21-1.27-.79-1.73-4.8-3.7-22.43-17.04-30.78-23.41-2.93-2.37-4.37-2.89-6.25-5.45-3.5-4.59-17.21-22.64-23.61-31.08.09-.62.31-1.08.7-1.32,2.83-1.79,12.78,9.14,14.76,11.35-6.5-14.47-.44-30.28,10.92-35.42,8.24-3.73,18.76-1.63,26.58,5.16-5.66-8.36-14.38-18.24-27.54-24.22ZM145.45,261.22c-3.56-4.77-8.12-8.36-13.14-10.27-5.14-1.94-10.33-1.91-14.61.09-.09.03-.18.09-.27.12-.55-.64-1.11-1.26-1.72-1.84l-.22-.22c-3.26-3.11-11.2-9.57-20.24-8.98-.9-4.19-2.73-8.47-6.06-12.31-5.54-6.28-11.88-9.33-18.89-9.14-.22.01-.44.03-.65.03.3-3.23.46-6.47.44-9.72-.03-10.25-1.66-17.39-3.23-24.3-1.14-5.05-2.22-9.81-2.74-15.96-.89-10.4.21-21.27,3.26-32.38l-2.39-8.37c-7.59-7.02-13.82-15.16-18.58-24.21l28.92,28.09c-2.93,10.87-3.96,21.53-3.1,31.72.52,6.15,1.6,10.9,2.74,15.96,1.57,6.9,3.2,14.04,3.23,24.3.01,3.24-.15,6.49-.44,9.72.22-.01.43-.01.65-.03,7.01-.19,13.35,2.86,18.89,9.14,3.33,3.84,5.17,8.1,6.06,12.31,9.04-.59,16.98,5.87,20.24,8.98l.22.22c.61.58,1.19,1.19,1.72,1.84.1-.04.18-.09.27-.12,4.3-2.01,9.48-2.04,14.61-.09,5.04,1.9,9.59,5.5,13.14,10.27,4.03-1.78,8.93-3.45,14.52-4.44,2.18,1.56,4.44,3.05,6.81,4.44-11.96-.96-22.15,1.94-29.45,5.16Z" fill="#709edf"/>
  <path d="M273.19,163.83c7.82-6.79,18.34-8.89,26.58-5.16,11.36,5.14,17.42,20.95,10.92,35.42,1.97-2.21,11.93-13.14,14.76-11.35.39.24.61.7.7,1.32-6.4,8.44-20.12,26.49-23.61,31.08-1.88,2.56-3.32,3.08-6.25,5.45-8.36,6.37-25.98,19.7-30.78,23.41-.58.46-.99,1.02-.79,1.73.15.62.65,1.27.93,2.03,1.16,3.17-2.89,5.44-4.81,7.75-1.63,1.72-3.53,3.26-4.84,5.17-1.9,3.02.99,4.1-.59,5.87-13.87,14.67-31.54,34.89-42.44,44.99-9.21,8.53-28.95,26.87-33.95,31.5-.62.56-1.45.8-2.18.64-1.67-.4-2.59-.01-4.24,1.66-4.76,4.73-16.06,16.12-19.84,19.78-2.92,2.95-5.39-3.79-8.37-.19-4.98,4.92-11.11,11.08-16.22,16.19-3.24,3.24-3.5,3.82-7.75,4.43-3.64.71-8.37.93-11.72,2l-.15.09c-.71.39-.81,1.14-.98,1.93-1.29,7.69-7.29,42.34-7.93,46.62-.03.77.27.86.99.79,4.76-.76,37.55-6.59,45.07-7.91,1.48-.3,2.03-.58,2.5-2.5.79-3.45,1.36-7.73,2.09-11.33.34-4.49,4.13-6.71,7.27-10.15,4.24-4.24,9.42-9.39,13.47-13.47.9-.96,1.27-1.75,1.04-2.61-.62-1.9-3.33-3.87-1.23-5.79,3.67-3.76,15.07-15.07,19.79-19.82,1.14-1.11,1.69-2.01,1.78-2.76.15-1.13-.5-1.9.06-2.99,6.65-7.63,27.33-29.67,37.42-40.44,6.25-5.78,29.07-26.99,39.53-36.62,1.75-1.6,2.84,1.3,5.87-.59,3.69-2.59,6.79-7.32,10.52-9.6,2.37-1.42,4.36,2.46,6.24.16,5.21-6.16,21.08-25.47,28.7-34.35,6.39-5.88,28.83-23.26,35.17-29.78.58-1.82-5.44-5.23-3.87-7.54.8-.18,1.5-.19,2.13-.12,0,0,4.09.53,14.47,19.78-17.51,18.49-18.98,19.9-18.98,19.9-7.76,7.38-20.34,16.19-41.27,21.78-3.66,11.19-7.3,22.36-10.95,33.53,1.33-2.49,14.01-25.24,40.24-28.74,17.23-2.3,30.41,5.05,34.62,7.63,5.08-11.78,15.3-16.37,20.99-13.7,4.83,2.25,5.87,9.48,6.03,10.77.03-4.83,1.21-10.07,5.33-14.04l.18-.18c1.21-1.16,8.95-8.41,15.9-6.33,4.31,1.29,6.59,5.67,7.59,8.21-1.26-4.43-3.54-15.81,3.36-23.75,1.33-1.51,5.61-6.44,12.33-6.25,7.47.21,11.82,6.61,12.3,7.32-1.57-5.63-3.5-14.49-3.47-25.36.06-16.53,4.64-24.13,5.94-39.57.7-8.13.64-20.16-3.53-35.32,6-5.56,14.74-15.01,21.57-28.95,5.87-11.97,8.19-22.89,9.2-30.44-24.73,24.01-49.47,48.01-74.19,72.03,1.56,2.89,5.78,11.67,2.87,21.51-1.44,4.96-5.75,13.69-11.94,14.1-2.21.13-3.87-.81-5.64-1.85-5.08-2.98-11.29-6.73-18.38-11.24.77-.86,1.42-1.63,1.99-2.28.68-1.1-.41-2.07-1.13-2.9-1.91-2-6-6.09-7.98-7.98-.67-.64-1.45-1.36-2.33-1.35-.67.46-1.53,1.11-2.52,1.96-.36-9.69-1.7-14.77-3.97-15.23-2.12-.43-5.02,3.07-8.76,10.5,1.04-4.33,1.35-8.52.84-12.34-.5-3.82-1.78-7.29-3.91-10.13-2.9-3.88-6.71-5.82-8-6.46-13.53-6.71-28.09,1.81-29.78,2.81,10.31,1.78,12.74,3.35,12.76,4.52.03,2.73-12.8,3.29-25.2,8.93-13.16,5.99-21.88,15.87-27.54,24.22ZM337.1,256.06c2.37-1.39,4.64-2.89,6.81-4.44,5.59.99,10.49,2.67,14.52,4.44,3.56-4.77,8.1-8.37,13.14-10.27,5.13-1.96,10.31-1.93,14.61.09.09.03.16.07.27.12.53-.65,1.11-1.26,1.72-1.84l.22-.22c3.26-3.11,11.2-9.57,20.24-8.98.89-4.21,2.73-8.47,6.06-12.31,5.54-6.28,11.88-9.33,18.89-9.14.22.01.43.01.65.03-.3-3.23-.46-6.47-.44-9.72.03-10.25,1.66-17.39,3.23-24.3,1.14-5.05,2.22-9.81,2.74-15.96.86-10.19-.16-20.84-3.1-31.72l28.92-28.09c-4.76,9.05-10.99,17.18-18.58,24.21l-2.39,8.37c3.05,11.11,4.15,21.98,3.26,32.38-.52,6.15-1.6,10.9-2.74,15.96-1.57,6.9-3.2,14.04-3.23,24.3-.01,3.24.15,6.49.44,9.72-.21,0-.43-.01-.65-.03-7.01-.19-13.35,2.86-18.89,9.14-3.33,3.84-5.16,8.12-6.06,12.31-9.04-.59-16.98,5.87-20.24,8.98l-.22.22c-.61.58-1.17,1.2-1.72,1.84-.09-.03-.18-.09-.27-.12-4.28-2-9.47-2.03-14.61-.09-5.02,1.91-9.59,5.5-13.14,10.27-7.3-3.21-17.5-6.12-29.45-5.16Z" fill="#709edf"/>
</svg>