<svg aria-hidden="true" style="position: absolute; width: 0; height: 0; overflow: hidden;" version="1.1" xmlns="http://www.w3.org/2000/svg" xmlns:xlink="http://www.w3.org/1999/xlink">
<defs>
<symbol id="icon-account" viewBox="0 0 29 32">
<path d="M14.72 16.762c1.685 0 3.333-0.492 4.735-1.412s2.494-2.23 3.139-3.761 0.814-3.217 0.485-4.842c-0.329-1.626-1.14-3.119-2.332-4.291s-2.71-1.97-4.363-2.294-3.367-0.157-4.924 0.477c-1.557 0.634-2.888 1.709-3.825 3.087s-1.436 2.999-1.436 4.656c0.003 2.222 0.901 4.352 2.499 5.923s3.764 2.455 6.023 2.458zM14.72 1.524c1.379 0 2.727 0.402 3.874 1.156s2.040 1.824 2.568 3.077c0.528 1.253 0.666 2.632 0.397 3.962s-0.933 2.552-1.908 3.511c-0.975 0.959-2.218 1.612-3.57 1.877s-2.754 0.129-4.029-0.39c-1.274-0.519-2.363-1.398-3.129-2.526s-1.175-2.453-1.175-3.81c0.002-1.818 0.737-3.561 2.044-4.847s3.080-2.009 4.928-2.011zM6.973 21.333h15.495c1.849 0.002 3.621 0.725 4.928 2.011s2.042 3.029 2.044 4.847v3.048c0 0.202-0.082 0.396-0.227 0.539s-0.342 0.223-0.548 0.223c-0.205 0-0.402-0.080-0.548-0.223s-0.227-0.337-0.227-0.539v-3.048c-0.002-1.414-0.574-2.77-1.59-3.769s-2.395-1.562-3.833-1.564h-15.495c-1.438 0.002-2.816 0.564-3.833 1.564s-1.589 2.355-1.59 3.769v3.048c0 0.202-0.082 0.396-0.227 0.539s-0.342 0.223-0.548 0.223-0.403-0.080-0.548-0.223c-0.145-0.143-0.227-0.337-0.227-0.539v-3.048c0.002-1.818 0.737-3.561 2.044-4.847s3.080-2.009 4.928-2.011z"></path>
</symbol>
<symbol id="icon-add-new" viewBox="0 0 32 32">
<path d="M16 0c-3.165 0-6.258 0.938-8.889 2.696s-4.682 4.257-5.893 7.181c-1.211 2.924-1.528 6.141-0.91 9.244s2.141 5.955 4.379 8.192c2.238 2.238 5.089 3.762 8.192 4.379s6.321 0.301 9.244-0.91c2.924-1.211 5.423-3.262 7.181-5.893s2.696-5.725 2.696-8.889c-0.005-4.242-1.692-8.309-4.692-11.308s-7.066-4.687-11.308-4.692zM16 30.476c-2.863 0-5.662-0.849-8.043-2.44s-4.236-3.852-5.332-6.497c-1.096-2.645-1.382-5.556-0.824-8.364s1.937-5.388 3.962-7.412c2.025-2.025 4.604-3.403 7.412-3.962s5.719-0.272 8.364 0.824c2.645 1.096 4.906 2.951 6.497 5.332s2.44 5.179 2.44 8.043c-0.004 3.838-1.531 7.518-4.245 10.231s-6.393 4.24-10.231 4.245zM22.857 16c0 0.1-0.020 0.199-0.058 0.292s-0.094 0.177-0.165 0.247-0.155 0.127-0.247 0.165c-0.092 0.038-0.192 0.058-0.292 0.058h-5.333v5.333c0 0.202-0.080 0.396-0.223 0.539s-0.337 0.223-0.539 0.223c-0.202 0-0.396-0.080-0.539-0.223s-0.223-0.337-0.223-0.539v-5.333h-5.333c-0.202 0-0.396-0.080-0.539-0.223s-0.223-0.337-0.223-0.539c0-0.202 0.080-0.396 0.223-0.539s0.337-0.223 0.539-0.223h5.333v-5.333c0-0.202 0.080-0.396 0.223-0.539s0.337-0.223 0.539-0.223c0.202 0 0.396 0.080 0.539 0.223s0.223 0.337 0.223 0.539v5.333h5.333c0.1-0 0.199 0.020 0.292 0.058s0.177 0.094 0.247 0.165 0.127 0.155 0.165 0.247c0.038 0.092 0.058 0.191 0.058 0.292z"></path>
</symbol>
<symbol id="icon-arrow" viewBox="0 0 38 32">
<path  d="M0.511 17.279c-0.162-0.166-0.29-0.362-0.377-0.578-0.089-0.215-0.134-0.446-0.134-0.679s0.046-0.464 0.134-0.679c0.087-0.216 0.215-0.412 0.377-0.578l13.964-14.222c0.161-0.17 0.354-0.305 0.567-0.398s0.442-0.142 0.674-0.144c0.232-0.002 0.462 0.043 0.676 0.132s0.409 0.221 0.573 0.388c0.164 0.167 0.294 0.365 0.381 0.584s0.132 0.453 0.13 0.689c-0.002 0.236-0.050 0.469-0.142 0.686s-0.224 0.413-0.391 0.577l-10.984 11.188h30.696c0.463 0 0.907 0.187 1.234 0.521s0.511 0.786 0.511 1.257c0 0.471-0.184 0.924-0.511 1.257s-0.771 0.521-1.234 0.521h-30.696l10.984 11.187c0.318 0.335 0.494 0.784 0.49 1.251s-0.188 0.912-0.511 1.242-0.761 0.517-1.219 0.521c-0.458 0.004-0.899-0.175-1.228-0.499l-13.964-14.222z"></path>
</symbol>
<symbol id="icon-browse" viewBox="0 0 32 32">
<path d="M22.607 21.537l-0.017-0.011c2.236-2.513 3.405-5.799 3.258-9.16s-1.598-6.532-4.044-8.841c-2.447-2.309-5.697-3.573-9.061-3.524s-6.576 1.407-8.955 3.785c-2.379 2.379-3.737 5.591-3.787 8.954s1.214 6.614 3.522 9.061c2.308 2.447 5.479 3.899 8.84 4.046s6.647-1.021 9.16-3.257l0.011 0.017 9.091 9.091c0.143 0.138 0.334 0.214 0.533 0.213s0.389-0.081 0.529-0.222c0.14-0.14 0.22-0.33 0.222-0.529s-0.075-0.39-0.212-0.533l-9.091-9.091zM12.98 24.345c-2.248 0-4.445-0.666-6.313-1.915s-3.325-3.023-4.185-5.1c-0.86-2.076-1.085-4.361-0.647-6.566s1.521-4.229 3.11-5.818c1.589-1.589 3.614-2.672 5.818-3.11s4.489-0.213 6.566 0.647c2.076 0.86 3.851 2.317 5.1 4.185s1.915 4.066 1.915 6.313c-0.003 3.013-1.202 5.901-3.332 8.032s-5.019 3.329-8.032 3.332z"></path>
</symbol>
<symbol id="icon-chevron-side" viewBox="0 0 19 32">
<path  d="M17.758 13.777c0.582 0.6 0.909 1.414 0.909 2.262s-0.327 1.662-0.909 2.262l-12.419 12.8c-0.586 0.583-1.37 0.906-2.184 0.898s-1.593-0.344-2.168-0.937-0.902-1.396-0.909-2.235c-0.007-0.839 0.306-1.647 0.871-2.251l10.224-10.538-10.224-10.538c-0.297-0.295-0.533-0.648-0.696-1.039s-0.248-0.81-0.252-1.235c-0.004-0.425 0.075-0.846 0.231-1.24s0.387-0.751 0.678-1.051c0.292-0.3 0.638-0.538 1.020-0.699s0.79-0.242 1.203-0.238c0.412 0.004 0.82 0.092 1.198 0.26s0.721 0.411 1.008 0.717l12.419 12.8z"></path>
</symbol>
<symbol id="icon-chevron-vert" viewBox="0 0 48 32">
<path d="M43.998 0h-39.997c-0.761-0-1.506 0.216-2.148 0.624s-1.154 0.991-1.477 1.68c-0.322 0.689-0.442 1.456-0.344 2.21s0.409 1.465 0.896 2.049l19.998 23.998c0.375 0.45 0.845 0.812 1.376 1.061s1.11 0.377 1.696 0.377c0.586 0 1.165-0.129 1.696-0.377s1-0.611 1.376-1.061l19.998-23.998c0.488-0.584 0.799-1.295 0.897-2.049s-0.021-1.521-0.344-2.21c-0.323-0.689-0.835-1.272-1.477-1.68s-1.387-0.625-2.148-0.624z"></path>
</symbol>
<symbol id="icon-clock" viewBox="0 0 32 32">
<path  d="M16 0c-3.165 0-6.258 0.938-8.889 2.696s-4.682 4.257-5.893 7.181c-1.211 2.924-1.528 6.141-0.91 9.244s2.141 5.955 4.379 8.192c2.238 2.238 5.089 3.762 8.192 4.379s6.321 0.301 9.244-0.91c2.924-1.211 5.422-3.262 7.18-5.893s2.697-5.725 2.697-8.889c-0.005-4.242-1.692-8.309-4.691-11.309s-7.067-4.687-11.309-4.691zM16 30.476c-2.863 0-5.662-0.849-8.043-2.44s-4.236-3.852-5.332-6.497-1.382-5.556-0.824-8.364c0.559-2.808 1.937-5.388 3.962-7.412s4.604-3.403 7.412-3.962c2.808-0.559 5.719-0.272 8.364 0.824s4.906 2.951 6.497 5.332c1.591 2.381 2.44 5.179 2.44 8.043-0.004 3.838-1.531 7.518-4.245 10.231s-6.393 4.24-10.231 4.245zM22.857 16c0 0.1-0.020 0.199-0.058 0.292s-0.094 0.176-0.165 0.247c-0.071 0.071-0.155 0.127-0.247 0.165s-0.192 0.058-0.292 0.058h-6.095c-0.1 0-0.199-0.020-0.292-0.058s-0.176-0.094-0.247-0.165c-0.071-0.071-0.127-0.155-0.165-0.247s-0.058-0.192-0.058-0.292v-9.143c0-0.202 0.080-0.396 0.223-0.539s0.337-0.223 0.539-0.223 0.396 0.080 0.539 0.223c0.143 0.143 0.223 0.337 0.223 0.539v8.381h5.333c0.1-0 0.199 0.020 0.292 0.058s0.176 0.094 0.247 0.165c0.071 0.071 0.127 0.155 0.165 0.247s0.058 0.192 0.058 0.292z"></path>
</symbol>
<symbol id="icon-cog" viewBox="0 0 32 32">
<path d="M15.442 21.333c1.055 0 2.086-0.313 2.963-0.899s1.561-1.419 1.964-2.393c0.404-0.974 0.509-2.047 0.304-3.081s-0.714-1.985-1.46-2.731c-0.746-0.746-1.696-1.254-2.731-1.46s-2.107-0.1-3.081 0.303c-0.975 0.404-1.808 1.087-2.394 1.964s-0.899 1.908-0.899 2.963c0.002 1.414 0.564 2.77 1.564 3.769s2.355 1.562 3.769 1.564zM15.442 12.19c0.753 0 1.49 0.223 2.116 0.642s1.115 1.014 1.403 1.71c0.288 0.696 0.364 1.462 0.217 2.201s-0.51 1.418-1.043 1.951c-0.533 0.533-1.212 0.896-1.95 1.043s-1.505 0.071-2.201-0.217-1.291-0.777-1.71-1.403c-0.419-0.626-0.642-1.363-0.642-2.116 0.001-1.010 0.403-1.978 1.117-2.692s1.682-1.116 2.692-1.117zM1.144 18.181c-0.26 0.15-0.488 0.349-0.671 0.588s-0.317 0.51-0.395 0.8-0.098 0.592-0.059 0.89c0.039 0.298 0.137 0.585 0.287 0.845l2.975 5.155c0.304 0.524 0.803 0.906 1.389 1.063s1.209 0.075 1.734-0.227l2.53-1.461c0.121-0.063 0.256-0.092 0.392-0.084s0.267 0.052 0.38 0.128c0.117 0.061 0.216 0.152 0.287 0.263s0.111 0.24 0.115 0.372v3.203c0.001 0.606 0.242 1.187 0.67 1.616s1.009 0.67 1.616 0.67h6.095c0.606-0.001 1.187-0.242 1.615-0.67s0.67-1.010 0.67-1.616v-3.203c0.006-0.135 0.048-0.266 0.121-0.38s0.176-0.205 0.297-0.265c0.112-0.072 0.241-0.113 0.373-0.119s0.265 0.024 0.383 0.086l2.53 1.461c0.525 0.302 1.149 0.384 1.734 0.227s1.084-0.54 1.388-1.064l2.975-5.153c0.15-0.26 0.248-0.547 0.287-0.845s0.020-0.6-0.058-0.89-0.212-0.562-0.395-0.8c-0.183-0.238-0.411-0.438-0.671-0.588l-2.469-1.426c-0.133-0.078-0.243-0.191-0.319-0.326s-0.113-0.288-0.11-0.442c0-0.15 0.040-0.298 0.115-0.429s0.183-0.239 0.314-0.314l2.468-1.426c0.26-0.15 0.488-0.35 0.671-0.588s0.317-0.51 0.395-0.8c0.078-0.29 0.098-0.592 0.059-0.89s-0.137-0.585-0.287-0.845l-2.976-5.154c-0.304-0.524-0.803-0.907-1.389-1.063s-1.209-0.075-1.734 0.226l-2.53 1.461c-0.121 0.062-0.256 0.091-0.392 0.083s-0.267-0.051-0.38-0.127c-0.117-0.061-0.216-0.152-0.287-0.263s-0.11-0.24-0.115-0.372v-3.203c-0.001-0.606-0.242-1.187-0.67-1.615s-1.009-0.67-1.615-0.67h-6.095c-0.606 0.001-1.187 0.242-1.616 0.67s-0.67 1.010-0.67 1.615v3.203c-0.013 0.132-0.057 0.259-0.129 0.371s-0.169 0.204-0.284 0.271c-0.115 0.066-0.244 0.104-0.377 0.111s-0.265-0.019-0.386-0.074l-2.53-1.461c-0.525-0.302-1.149-0.383-1.734-0.226s-1.084 0.539-1.388 1.063l-2.975 5.153c-0.15 0.26-0.248 0.547-0.287 0.845s-0.020 0.6 0.058 0.89c0.078 0.29 0.212 0.562 0.395 0.8s0.411 0.438 0.671 0.588l2.496 1.441c0.124 0.080 0.224 0.192 0.29 0.324s0.096 0.279 0.086 0.426c0.007 0.144-0.024 0.287-0.090 0.416s-0.165 0.236-0.287 0.314l-2.495 1.441zM4.401 13.94l-2.496-1.441c-0.087-0.050-0.163-0.117-0.223-0.196s-0.106-0.17-0.131-0.267c-0.026-0.097-0.032-0.197-0.019-0.297s0.046-0.195 0.096-0.281l2.975-5.154c0.050-0.087 0.116-0.163 0.196-0.224s0.17-0.106 0.267-0.132c0.097-0.026 0.198-0.032 0.297-0.019s0.195 0.046 0.282 0.096l2.53 1.461c0.353 0.189 0.748 0.284 1.148 0.278s0.792-0.115 1.138-0.315c0.346-0.2 0.636-0.485 0.842-0.828s0.32-0.733 0.333-1.133v-3.203c0-0.202 0.080-0.396 0.223-0.539s0.337-0.223 0.539-0.223h6.095c0.202 0 0.396 0.080 0.538 0.223s0.223 0.337 0.223 0.539v3.203c0.013 0.4 0.128 0.79 0.333 1.133s0.495 0.628 0.842 0.828c0.346 0.2 0.738 0.308 1.138 0.315s0.795-0.089 1.148-0.277l2.529-1.461c0.175-0.101 0.383-0.128 0.578-0.076s0.362 0.18 0.463 0.355l2.976 5.155c0.050 0.087 0.082 0.182 0.095 0.281s0.006 0.2-0.020 0.296c-0.026 0.097-0.071 0.187-0.132 0.266s-0.137 0.146-0.224 0.196l-2.469 1.426c-0.362 0.212-0.663 0.515-0.872 0.879s-0.319 0.776-0.319 1.196c0 0.42 0.11 0.832 0.319 1.196s0.509 0.667 0.872 0.879l2.469 1.426c0.087 0.050 0.163 0.117 0.224 0.196s0.105 0.17 0.131 0.267c0.026 0.097 0.032 0.197 0.019 0.297s-0.046 0.195-0.096 0.281l-2.976 5.153c-0.050 0.087-0.116 0.163-0.195 0.224s-0.17 0.106-0.267 0.132c-0.097 0.026-0.198 0.033-0.297 0.020s-0.195-0.046-0.282-0.096l-2.53-1.461c-0.353-0.189-0.748-0.284-1.148-0.278s-0.792 0.115-1.138 0.315c-0.346 0.2-0.636 0.485-0.842 0.829s-0.32 0.733-0.333 1.133v3.203c-0 0.202-0.080 0.396-0.223 0.539s-0.337 0.223-0.538 0.223h-6.095c-0.202-0-0.396-0.080-0.539-0.223s-0.223-0.337-0.223-0.539v-3.203c-0.004-0.403-0.115-0.797-0.322-1.142s-0.503-0.629-0.857-0.821c-0.36-0.212-0.77-0.325-1.188-0.327-0.384-0-0.761 0.1-1.094 0.292l-2.529 1.461c-0.175 0.101-0.383 0.128-0.578 0.075s-0.362-0.18-0.463-0.354l-2.976-5.155c-0.050-0.087-0.082-0.182-0.095-0.281s-0.006-0.2 0.020-0.296c0.026-0.097 0.071-0.187 0.132-0.266s0.137-0.146 0.224-0.195l2.496-1.441c0.348-0.219 0.636-0.523 0.835-0.883s0.304-0.765 0.304-1.177-0.104-0.816-0.304-1.177c-0.199-0.36-0.486-0.664-0.835-0.883z"></path>
</symbol>
<symbol id="icon-cross" viewBox="0 0 32 32">
<path  d="M30.389 31.991l0.144 0.009c0.145 0.001 0.289-0.019 0.428-0.060l0.136-0.049c0.179-0.073 0.341-0.181 0.477-0.318 0.102-0.102 0.189-0.219 0.256-0.346l0.061-0.131c0.073-0.179 0.11-0.371 0.109-0.564s-0.041-0.384-0.117-0.561c-0.076-0.177-0.187-0.338-0.326-0.472l-13.517-13.516 13.517-13.517c0.265-0.274 0.411-0.641 0.407-1.022s-0.156-0.747-0.425-1.016c-0.236-0.236-0.545-0.382-0.874-0.417l-0.142-0.009c-0.381-0.003-0.749 0.144-1.024 0.409l-13.516 13.516-13.517-13.516c-0.24-0.232-0.552-0.373-0.881-0.403l-0.141-0.006c-0.381 0.003-0.747 0.157-1.016 0.426l-0.096 0.105c-0.21 0.256-0.327 0.578-0.33 0.911l0.006 0.141c0.029 0.33 0.171 0.641 0.403 0.881l13.516 13.517-13.516 13.516c-0.265 0.274-0.412 0.642-0.409 1.024l0.009 0.142c0.035 0.329 0.182 0.638 0.417 0.874l0.105 0.095c0.219 0.18 0.487 0.292 0.769 0.323l0.143 0.007c0.333 0.003 0.656-0.109 0.915-0.314l0.107-0.094 13.517-13.517 13.516 13.517c0.134 0.139 0.295 0.25 0.472 0.326l0.135 0.050c0.092 0.029 0.187 0.048 0.282 0.059z"></path>
</symbol>
<symbol id="icon-crown" viewBox="0 0 35 32">
<path d="M30.715 32c2.569 0 4.654-2.062 4.654-4.603s-2.085-4.603-4.654-4.603h-26.061c-2.569 0-4.654 2.062-4.654 4.603s2.085 4.603 4.654 4.603h26.061zM1.861 27.397c0-1.528 1.247-2.762 2.792-2.762h26.061c1.545 0 2.792 1.234 2.792 2.762s-1.247 2.762-2.792 2.762h-26.061c-1.545 0-2.792-1.234-2.792-2.762zM33.619 7.586l-2.941 12.446h-1.917l2.569-10.808-7.483 6.002c-0.205 0.166-0.484 0.276-0.745 0.239-0.205-0.037-0.428-0.203-0.558-0.387-0.056-0.055-4.877-12.004-4.877-12.004l-4.71 11.802c-0.112 0.258-0.354 0.46-0.633 0.516-0.279 0.074-0.577 0.018-0.8-0.166l-7.39-5.947 2.476 10.752h-1.88l-2.885-12.446c-0.112-0.46 0.093-0.921 0.503-1.178 0.391-0.239 0.912-0.221 1.284 0.092l7.949 6.407 5.063-12.207c0.168-0.423 0.577-0.7 1.042-0.7 0.521-0.018 0.875 0.276 1.042 0.7l4.914 12.225 8.191-6.462c0.372-0.276 0.893-0.313 1.303-0.055 0.391 0.239 0.596 0.718 0.484 1.178z"></path>
</symbol>
<symbol id="icon-edit" viewBox="0 0 32 32">
<path  d="M23.277 0.52l-19.911 19.911c-0.196 0.195-0.343 0.433-0.43 0.695l-2.844 8.533c-0.089 0.267-0.113 0.552-0.071 0.83s0.151 0.543 0.315 0.771 0.381 0.415 0.632 0.543c0.251 0.128 0.528 0.195 0.81 0.195 0.191-0 0.381-0.031 0.562-0.091l8.533-2.844c0.262-0.088 0.5-0.235 0.695-0.43l19.911-19.911c0.333-0.333 0.521-0.785 0.521-1.257s-0.187-0.924-0.521-1.257l-5.689-5.689c-0.333-0.333-0.785-0.52-1.257-0.52s-0.923 0.187-1.257 0.52z"></path>
</symbol>
<symbol id="icon-eye-off" viewBox="0 0 32 32">
<path  d="M1.301 0.214c-0.144-0.139-0.336-0.216-0.536-0.214s-0.391 0.082-0.532 0.223c-0.141 0.141-0.221 0.333-0.223 0.532s0.075 0.392 0.214 0.536l6.58 6.584c-2.719 2.113-4.995 4.742-6.697 7.736-0.069 0.118-0.106 0.252-0.106 0.389s0.037 0.271 0.106 0.389c3.47 5.865 7.894 9.562 12.797 10.692 1.015 0.235 2.053 0.354 3.095 0.354 2.819-0.039 5.569-0.88 7.928-2.426l6.773 6.777c0.144 0.139 0.336 0.216 0.536 0.214s0.391-0.082 0.532-0.223c0.141-0.141 0.221-0.333 0.223-0.532s-0.075-0.392-0.214-0.536l-30.475-30.494zM12.825 13.901l5.273 5.276c-0.732 0.486-1.609 0.704-2.482 0.616s-1.69-0.475-2.311-1.096-1.008-1.438-1.095-2.313c-0.087-0.874 0.13-1.752 0.616-2.484zM13.246 25.595c-4.379-1.010-8.382-4.324-11.595-9.595 1.598-2.733 3.716-5.125 6.234-7.042l3.86 3.863c-0.774 1.022-1.153 2.29-1.065 3.57s0.635 2.484 1.542 3.391c0.906 0.907 2.11 1.455 3.389 1.543s2.546-0.291 3.568-1.066l3.645 3.647c-2.845 1.805-6.287 2.412-9.578 1.689zM16.556 12.244l-1.486-1.487c0.306-0.061 0.618-0.093 0.93-0.094 1.414 0.002 2.769 0.565 3.769 1.565s1.562 2.357 1.564 3.772c-0.001 0.312-0.032 0.624-0.094 0.931l-1.486-1.487c-0.119-0.806-0.495-1.552-1.070-2.128s-1.321-0.952-2.127-1.071zM31.894 15.611c0.069 0.118 0.106 0.252 0.106 0.389s-0.037 0.271-0.106 0.389c-1.341 2.311-3.003 4.42-4.936 6.264l-1.082-1.082c1.738-1.644 3.242-3.518 4.473-5.57-3.899-6.395-8.98-9.911-14.349-9.911-1.596 0.016-3.174 0.337-4.649 0.946l-1.18-1.181c1.83-0.837 3.817-1.276 5.829-1.29 6.037 0 11.681 3.923 15.894 11.047z"></path>
</symbol>
<symbol id="icon-eye" viewBox="0 0 44 32">
<path  d="M22.223 0c-8.383 0-16.224 5.49-22.075 15.456-0.097 0.165-0.148 0.352-0.148 0.544s0.051 0.379 0.148 0.544c5.851 9.967 13.691 15.456 22.075 15.456s16.223-5.49 22.074-15.456c0.096-0.165 0.147-0.352 0.147-0.544s-0.051-0.379-0.147-0.544c-5.851-9.967-13.69-15.456-22.074-15.456zM22.223 29.867c-7.457 0-14.516-4.919-19.93-13.867 5.414-8.948 12.473-13.867 19.93-13.867s14.514 4.919 19.929 13.867c-5.415 8.948-12.473 13.867-19.929 13.867zM22.222 8.533c-1.465 0-2.897 0.438-4.115 1.258s-2.168 1.987-2.728 3.351c-0.561 1.364-0.707 2.866-0.421 4.314s0.991 2.779 2.027 3.823c1.036 1.044 2.356 1.755 3.793 2.044s2.926 0.14 4.28-0.425c1.354-0.565 2.51-1.522 3.324-2.75s1.248-2.672 1.248-4.148c-0.002-1.98-0.783-3.877-2.172-5.277s-3.271-2.187-5.235-2.19zM22.222 21.333c-1.046 0-2.069-0.313-2.939-0.899s-1.548-1.419-1.949-2.393c-0.4-0.975-0.505-2.047-0.301-3.082s0.708-1.985 1.448-2.731c0.74-0.746 1.683-1.254 2.709-1.46s2.090-0.1 3.057 0.303c0.967 0.404 1.793 1.087 2.375 1.964s0.892 1.908 0.892 2.963c-0.002 1.414-0.559 2.77-1.551 3.77s-2.337 1.562-3.74 1.564z"></path>
</symbol>
<symbol id="icon-filter" viewBox="0 0 32 32">
<path  d="M0 4.364c0-0.386 0.153-0.756 0.426-1.029s0.643-0.426 1.029-0.426h14.545c0.386 0 0.756 0.153 1.028 0.426s0.426 0.643 0.426 1.029c0 0.386-0.153 0.756-0.426 1.029s-0.643 0.426-1.028 0.426h-14.545c-0.386 0-0.756-0.153-1.028-0.426s-0.426-0.643-0.426-1.029zM30.545 2.909h-7.273v-1.455c0-0.386-0.153-0.756-0.426-1.028s-0.643-0.426-1.028-0.426c-0.386 0-0.756 0.153-1.029 0.426s-0.426 0.643-0.426 1.028v5.818c0 0.386 0.153 0.756 0.426 1.029s0.643 0.426 1.029 0.426c0.386 0 0.756-0.153 1.028-0.426s0.426-0.643 0.426-1.029v-1.455h7.273c0.386 0 0.756-0.153 1.029-0.426s0.426-0.643 0.426-1.029c0-0.386-0.153-0.756-0.426-1.029s-0.643-0.426-1.029-0.426zM1.455 17.455h8.727c0.386 0 0.756-0.153 1.029-0.426s0.426-0.643 0.426-1.028c0-0.386-0.153-0.756-0.426-1.028s-0.643-0.426-1.029-0.426h-8.727c-0.386 0-0.756 0.153-1.028 0.426s-0.426 0.643-0.426 1.028c0 0.386 0.153 0.756 0.426 1.028s0.643 0.426 1.028 0.426zM30.545 14.545h-13.091v-1.454c0-0.386-0.153-0.756-0.426-1.029s-0.643-0.426-1.028-0.426c-0.386 0-0.756 0.153-1.028 0.426s-0.426 0.643-0.426 1.029v5.818c0 0.386 0.153 0.756 0.426 1.029s0.643 0.426 1.028 0.426 0.756-0.153 1.028-0.426c0.273-0.273 0.426-0.643 0.426-1.029v-1.454h13.091c0.386 0 0.756-0.153 1.029-0.426s0.426-0.643 0.426-1.028c0-0.386-0.153-0.756-0.426-1.028s-0.643-0.426-1.029-0.426zM1.455 29.091h18.909c0.386 0 0.756-0.153 1.028-0.426s0.426-0.643 0.426-1.028c0-0.386-0.153-0.756-0.426-1.028s-0.643-0.426-1.028-0.426h-18.909c-0.386 0-0.756 0.153-1.028 0.426s-0.426 0.643-0.426 1.028c0 0.386 0.153 0.756 0.426 1.028s0.643 0.426 1.028 0.426zM30.545 26.182h-2.909v-1.454c0-0.386-0.153-0.756-0.426-1.028s-0.643-0.426-1.029-0.426c-0.386 0-0.756 0.153-1.028 0.426s-0.426 0.643-0.426 1.028v5.818c0 0.386 0.153 0.756 0.426 1.029s0.643 0.426 1.028 0.426c0.386 0 0.756-0.153 1.029-0.426s0.426-0.643 0.426-1.029v-1.454h2.909c0.386 0 0.756-0.153 1.029-0.426s0.426-0.643 0.426-1.028c0-0.386-0.153-0.756-0.426-1.028s-0.643-0.426-1.029-0.426z"></path>
</symbol>
<symbol id="icon-home" viewBox="0 0 29 32">
<path d="M4.329 32h20.781c1.148-0.001 2.248-0.445 3.060-1.235s1.268-1.86 1.27-2.976v-14.318c-0.003-1.176-0.286-2.336-0.827-3.388s-1.325-1.968-2.29-2.676l-9.006-6.569c-0.751-0.543-1.662-0.837-2.598-0.837s-1.847 0.293-2.598 0.837l-9.006 6.569c-0.966 0.708-1.749 1.624-2.29 2.676s-0.824 2.212-0.827 3.388v14.318c0.001 1.117 0.458 2.187 1.27 2.976s1.912 1.234 3.060 1.235zM18.53 30.316h-7.62v-6.738c0-0.983 0.401-1.926 1.116-2.621s1.684-1.086 2.694-1.086c1.011 0 1.98 0.391 2.694 1.086s1.116 1.638 1.116 2.621v6.738zM1.732 13.47c0.002-0.915 0.222-1.817 0.643-2.635s1.030-1.531 1.781-2.082l9.005-6.569c0.451-0.326 0.998-0.502 1.559-0.502s1.108 0.176 1.559 0.502l9.005 6.569c0.751 0.551 1.361 1.264 1.781 2.082s0.641 1.72 0.643 2.635v14.318c-0.001 0.67-0.275 1.312-0.762 1.786s-1.147 0.74-1.836 0.741h-4.848v-6.738c0-1.43-0.584-2.801-1.623-3.812s-2.449-1.579-3.919-1.579-2.879 0.568-3.919 1.579c-1.039 1.011-1.623 2.382-1.623 3.812v6.738h-4.849c-0.689-0.001-1.349-0.267-1.836-0.741s-0.761-1.116-0.762-1.786v-14.318z"></path>
</symbol>
<symbol id="icon-link" viewBox="0 0 70 32">
<path  d="M70.4 16c-0.005 4.242-1.692 8.309-4.692 11.308s-7.066 4.687-11.308 4.692h-6.4c-0.849 0-1.663-0.337-2.263-0.937s-0.937-1.414-0.937-2.263 0.337-1.663 0.937-2.263c0.6-0.6 1.414-0.937 2.263-0.937h6.4c2.546 0 4.988-1.011 6.788-2.812s2.812-4.242 2.812-6.788c0-2.546-1.012-4.988-2.812-6.788s-4.242-2.812-6.788-2.812h-6.4c-0.849 0-1.663-0.337-2.263-0.937s-0.937-1.414-0.937-2.263 0.337-1.663 0.937-2.263c0.6-0.6 1.414-0.937 2.263-0.937h6.4c4.242 0.005 8.308 1.692 11.308 4.692s4.687 7.066 4.692 11.308zM16 32h6.4c0.849 0 1.663-0.337 2.263-0.937s0.937-1.414 0.937-2.263-0.337-1.663-0.937-2.263c-0.6-0.6-1.414-0.937-2.263-0.937h-6.4c-2.546 0-4.988-1.011-6.788-2.812s-2.812-4.242-2.812-6.788c0-2.546 1.011-4.988 2.812-6.788s4.242-2.812 6.788-2.812h6.4c0.849 0 1.663-0.337 2.263-0.937s0.937-1.414 0.937-2.263-0.337-1.663-0.937-2.263c-0.6-0.6-1.414-0.937-2.263-0.937h-6.4c-4.243 0-8.313 1.686-11.314 4.686s-4.686 7.070-4.686 11.314c0 4.243 1.686 8.313 4.686 11.314s7.070 4.686 11.314 4.686zM19.2 16c0 0.849 0.337 1.663 0.937 2.263s1.414 0.937 2.263 0.937h25.6c0.849 0 1.663-0.337 2.263-0.937s0.937-1.414 0.937-2.263-0.337-1.663-0.937-2.263c-0.6-0.6-1.414-0.937-2.263-0.937h-25.6c-0.849 0-1.663 0.337-2.263 0.937s-0.937 1.414-0.937 2.263z"></path>
</symbol>
<symbol id="icon-lock" viewBox="0 0 22 32">
<path  d="M11.13 0c-1.844 0.002-3.612 0.736-4.917 2.040s-2.038 3.072-2.040 4.917v3.847c-1.8 1.441-3.108 3.406-3.743 5.623s-0.566 4.576 0.198 6.752 2.184 4.061 4.066 5.394c1.881 1.334 4.13 2.050 6.436 2.050s4.555-0.716 6.436-2.050c1.881-1.333 3.302-3.218 4.066-5.394s0.833-4.535 0.198-6.752c-0.635-2.217-1.943-4.182-3.743-5.623v-3.847c-0.002-1.844-0.736-3.612-2.040-4.917s-3.072-2.038-4.917-2.040zM6.957 6.957c0-1.107 0.44-2.169 1.222-2.951s1.844-1.223 2.951-1.223c1.107 0 2.169 0.44 2.951 1.223s1.223 1.844 1.223 2.951v2.211c-2.675-1.093-5.672-1.093-8.348 0v-2.211zM19.478 19.478c0 1.651-0.49 3.265-1.407 4.638s-2.221 2.443-3.746 3.075c-1.525 0.632-3.204 0.797-4.823 0.475s-3.107-1.117-4.274-2.285c-1.167-1.167-1.963-2.655-2.285-4.274s-0.157-3.298 0.475-4.823 1.702-2.829 3.075-3.746c1.373-0.917 2.987-1.407 4.638-1.407 2.213 0.002 4.335 0.882 5.9 2.447s2.445 3.687 2.447 5.9zM13.913 18.087c-0.001 0.487-0.131 0.964-0.375 1.385s-0.595 0.77-1.016 1.012v3.168c0 0.369-0.147 0.723-0.408 0.984s-0.615 0.407-0.984 0.407c-0.369 0-0.723-0.147-0.984-0.407s-0.408-0.615-0.408-0.984v-3.168c-0.423-0.244-0.775-0.596-1.019-1.020s-0.373-0.904-0.372-1.393c0.001-0.489 0.13-0.969 0.375-1.392s0.598-0.774 1.022-1.018c0.424-0.243 0.905-0.371 1.394-0.37s0.969 0.132 1.392 0.377c0.423 0.246 0.773 0.599 1.016 1.023s0.37 0.905 0.367 1.394z"></path>
</symbol>
<symbol id="icon-lock-1" viewBox="0 0 25 32">
<path  d="M25.263 28.19v-12.19c-0.001-1.010-0.393-1.978-1.089-2.693s-1.641-1.116-2.626-1.117h-2.229v-5.333c0-1.819-0.704-3.563-1.959-4.849s-2.955-2.008-4.729-2.008-3.475 0.722-4.729 2.008c-1.254 1.286-1.959 3.030-1.959 4.849v5.333h-2.229c-0.985 0.001-1.929 0.403-2.626 1.117s-1.088 1.683-1.089 2.693v12.19c0.001 1.010 0.393 1.978 1.089 2.693s1.641 1.116 2.626 1.117h17.833c0.985-0.001 1.929-0.403 2.626-1.117s1.088-1.683 1.089-2.693zM7.43 6.857c0-1.414 0.548-2.771 1.523-3.771s2.298-1.562 3.678-1.562c1.379 0 2.702 0.562 3.678 1.562s1.523 2.357 1.523 3.771v5.333h-10.402v-5.333zM1.486 28.19v-12.19c0.001-0.606 0.236-1.187 0.654-1.616s0.985-0.67 1.575-0.67h17.833c0.591 0.001 1.158 0.242 1.576 0.67s0.653 1.009 0.653 1.616v12.19c-0 0.606-0.236 1.187-0.653 1.616s-0.985 0.669-1.576 0.67h-17.833c-0.591-0.001-1.158-0.242-1.575-0.67s-0.653-1.010-0.654-1.616z"></path>
</symbol>
<symbol id="icon-swords" viewBox="0 0 32 32">
<path d="M27.219 23.155l2.446-2.447c0.525-0.522 0.828-1.228 0.844-1.968s-0.254-1.459-0.756-2.004c-0.501-0.545-1.194-0.875-1.933-0.921s-1.467 0.197-2.032 0.677l-8.222 8.222c0.3 0.442 0.529 0.929 0.678 1.443l8.436-8.436c0.125-0.126 0.274-0.225 0.438-0.293s0.339-0.103 0.517-0.103c0.177-0 0.353 0.035 0.517 0.103s0.313 0.167 0.438 0.293c0.125 0.125 0.225 0.274 0.292 0.438s0.103 0.34 0.102 0.517c-0 0.177-0.035 0.353-0.104 0.517s-0.168 0.312-0.294 0.438l-8.957 8.957c-0.171 0.167-0.382 0.285-0.614 0.342s-0.474 0.051-0.702-0.016c-0.131 0.5-0.337 0.977-0.612 1.415 0.512 0.19 1.067 0.229 1.6 0.111s1.021-0.386 1.405-0.774l2.446-2.446 3.94 3.939c0.266 0.268 0.583 0.48 0.931 0.625s0.723 0.219 1.1 0.217c0.568-0 1.125-0.169 1.597-0.485s0.84-0.765 1.058-1.29c0.217-0.525 0.274-1.103 0.163-1.66s-0.385-1.069-0.787-1.471l-3.939-3.94zM30.080 30.080c-0.125 0.126-0.274 0.225-0.438 0.293s-0.339 0.103-0.516 0.103c-0.177 0-0.353-0.035-0.516-0.103s-0.312-0.167-0.438-0.293l-3.94-3.939 1.909-1.909 3.939 3.94c0.125 0.125 0.225 0.274 0.293 0.438s0.103 0.339 0.103 0.516-0.035 0.353-0.103 0.516c-0.068 0.164-0.168 0.312-0.293 0.438zM2.872 32h0.002c0.377 0.001 0.751-0.073 1.1-0.217s0.665-0.357 0.931-0.625l3.94-3.939 2.447 2.446c0.267 0.267 0.583 0.479 0.932 0.623s0.722 0.219 1.099 0.219c0.377 0 0.751-0.074 1.1-0.218s0.665-0.356 0.932-0.623c0.267-0.267 0.479-0.583 0.623-0.932s0.219-0.722 0.219-1.1c0-0.377-0.074-0.751-0.219-1.1s-0.356-0.665-0.623-0.932l-8.958-8.958c-0.267-0.267-0.584-0.478-0.932-0.623s-0.722-0.219-1.1-0.219c-0.762 0-1.493 0.303-2.031 0.842s-0.841 1.27-0.841 2.032 0.303 1.493 0.842 2.032l2.447 2.446-3.939 3.94c-0.402 0.402-0.675 0.914-0.786 1.471s-0.054 1.135 0.163 1.659c0.217 0.525 0.585 0.974 1.057 1.289s1.027 0.485 1.595 0.485zM3.412 19.631c-0.253-0.253-0.394-0.596-0.394-0.954s0.142-0.7 0.395-0.953c0.253-0.253 0.595-0.395 0.953-0.396s0.701 0.141 0.954 0.393l8.958 8.958c0.126 0.125 0.225 0.274 0.293 0.438s0.103 0.339 0.103 0.517c0 0.177-0.035 0.353-0.103 0.517s-0.167 0.313-0.293 0.438c-0.125 0.125-0.274 0.225-0.438 0.293s-0.34 0.103-0.517 0.102c-0.177-0-0.353-0.035-0.517-0.104s-0.313-0.168-0.438-0.294l-8.957-8.957zM1.92 28.173l3.939-3.94 1.909 1.909-3.94 3.939c-0.253 0.253-0.596 0.395-0.954 0.395s-0.701-0.142-0.954-0.395c-0.253-0.253-0.395-0.596-0.395-0.954s0.142-0.701 0.395-0.954zM0.223 7.272c-0.071-0.071-0.127-0.155-0.165-0.247s-0.058-0.191-0.058-0.292v-5.972c-0-0.1 0.020-0.199 0.058-0.292s0.094-0.176 0.165-0.247c0.071-0.071 0.155-0.127 0.247-0.165s0.192-0.058 0.292-0.058h5.972c0.1-0 0.199 0.020 0.292 0.058s0.176 0.094 0.247 0.165l7.112 7.112-1.077 1.077-6.888-6.888h-4.894v4.894l6.888 6.888-1.077 1.077-7.112-7.112zM32 0.762v5.972c0 0.1-0.020 0.199-0.058 0.292s-0.094 0.176-0.165 0.247l-15.76 15.76-1.077-1.077 15.536-15.536v-4.894h-4.894l-15.536 15.536-1.077-1.077 15.76-15.76c0.071-0.071 0.155-0.127 0.247-0.165s0.192-0.058 0.291-0.058h5.972c0.1-0 0.199 0.020 0.292 0.058s0.177 0.094 0.247 0.165c0.071 0.071 0.127 0.155 0.165 0.247s0.058 0.192 0.058 0.292z"></path>
</symbol>
<symbol id="icon-no-ads" viewBox="0 0 32 32">
<path  d="M4.823 26.282l10.298-10.282-10.298-10.282c-0.298-0.308-0.463-0.721-0.459-1.149s0.176-0.838 0.479-1.141c0.303-0.303 0.714-0.475 1.143-0.478s0.842 0.161 1.151 0.459l10.298 10.282 10.298-10.282c0.151-0.156 0.331-0.281 0.531-0.366s0.414-0.131 0.632-0.133c0.217-0.002 0.433 0.039 0.634 0.122s0.384 0.203 0.537 0.357c0.154 0.153 0.275 0.336 0.358 0.537s0.124 0.416 0.122 0.633-0.047 0.431-0.133 0.631c-0.086 0.199-0.21 0.38-0.367 0.53l-10.298 10.282 10.298 10.282c0.156 0.151 0.281 0.331 0.367 0.53s0.131 0.414 0.133 0.631c0.002 0.217-0.040 0.432-0.122 0.633s-0.204 0.383-0.358 0.537c-0.154 0.153-0.336 0.275-0.537 0.357s-0.417 0.123-0.634 0.122c-0.217-0.002-0.432-0.047-0.632-0.133s-0.38-0.21-0.531-0.366l-10.298-10.282-10.298 10.282c-0.309 0.298-0.722 0.462-1.151 0.459s-0.839-0.176-1.143-0.479c-0.303-0.303-0.476-0.713-0.479-1.141s0.161-0.841 0.459-1.149z"></path>
<path  d="M14.552 30.547c-0 0.386-0.153 0.756-0.426 1.028s-0.643 0.426-1.028 0.426h-5.818c-0.386 0-0.756-0.154-1.028-0.426-0.189-0.189-0.319-0.426-0.382-0.682l2.865-2.861v1.060h2.909v-3.965l2.909-2.905v8.324z"></path>
<path  d="M5.666 7.615c-0.528 0.222-1.012 0.548-1.42 0.964-0.801 0.816-1.25 1.913-1.25 3.057s0.449 2.241 1.25 3.057c0.801 0.816 1.891 1.286 3.034 1.307h5.828c0.208 0.004 0.413 0.053 0.599 0.145 0.013 0.009 0.030 0.009 0.043 0.009l0.132 0.065-2.695 2.692h-2.453v2.447l-2.909 2.905v-5.499c-1.767-0.359-3.338-1.362-4.408-2.814s-1.562-3.25-1.381-5.044c0.181-1.794 1.022-3.457 2.361-4.666 0.337-0.304 0.699-0.576 1.081-0.81l2.188 2.185z"></path>
<path  d="M21.226 23.149c-0.017-0.008-0.035-0.013-0.051-0.021l-5.011-2.513 1.263-1.26 3.8 3.794z"></path>
<path  d="M23.28 18.527l-2.513-2.509 2.513-2.51v5.018z"></path>
<path  d="M29.756 7.043c0.191 0.148 0.374 0.308 0.547 0.48 1.091 1.091 1.705 2.572 1.705 4.115s-0.614 3.023-1.705 4.114-2.571 1.705-4.114 1.705c-0.386 0-0.756-0.154-1.028-0.426s-0.426-0.643-0.426-1.028c0-0.386 0.153-0.757 0.426-1.030 0.239-0.239 0.552-0.385 0.885-0.418l0.43-0.021c0.666-0.066 1.292-0.361 1.77-0.838 0.545-0.545 0.852-1.286 0.852-2.057s-0.307-1.513-0.852-2.058c-0.176-0.175-0.374-0.322-0.584-0.446l2.094-2.091z"></path>
<path  d="M21.89 0.001c0.248 0.011 0.489 0.085 0.7 0.216s0.385 0.313 0.506 0.53c0.121 0.217 0.183 0.461 0.183 0.709v5.379l-2.909 2.905v-5.932l-6.622 3.313c-0.202 0.101-0.425 0.154-0.651 0.153h-1.088l-2.913-2.909h3.658l8.42-4.212c0.222-0.111 0.468-0.163 0.716-0.152z"></path>
</symbol>
<symbol id="icon-no-show" viewBox="0 0 29 32">
<path d="M0.614 31.138c0.338 0 0.612 0.271 0.613 0.604v0.259h-1.226v-0.259c0-0.333 0.275-0.604 0.614-0.604zM28.826 31.138c0.339 0 0.613 0.27 0.614 0.604v0.259h-1.226v-0.259c0-0.333 0.274-0.604 0.612-0.604zM0.656 27.436c0.338 0.018 0.597 0.303 0.579 0.636-0 0.005-0.001 0.010-0.001 0.015-0.005 0.096-0.008 0.193-0.008 0.29v0.258c0 0.333-0.274 0.605-0.613 0.605s-0.614-0.272-0.614-0.605v-0.258c0-0.125 0.004-0.249 0.011-0.372 0.019-0.333 0.307-0.587 0.645-0.569zM28.784 27.436c0.338-0.018 0.626 0.236 0.645 0.569 0.007 0.123 0.011 0.248 0.011 0.372v0.258c0 0.333-0.275 0.605-0.614 0.605s-0.612-0.272-0.612-0.605v-0.258c0-0.102-0.003-0.204-0.009-0.305-0.019-0.333 0.241-0.618 0.579-0.636zM2.256 23.421c0.253-0.218 0.637-0.196 0.861 0.051 0.226 0.248 0.203 0.63-0.049 0.852-0.003 0.003-0.007 0.007-0.010 0.010-0.147 0.13-0.287 0.267-0.419 0.411-0.003 0.003-0.007 0.008-0.010 0.011-0.226 0.248-0.613 0.268-0.865 0.046-0.251-0.221-0.275-0.599-0.054-0.848 0.004-0.005 0.009-0.009 0.014-0.014 0.163-0.178 0.335-0.349 0.516-0.509 0.005-0.004 0.010-0.008 0.015-0.012zM26.323 23.473c0.224-0.247 0.607-0.268 0.86-0.051 0.005 0.004 0.010 0.008 0.015 0.012 0.181 0.16 0.354 0.33 0.516 0.509 0.004 0.005 0.009 0.009 0.014 0.014 0.222 0.249 0.199 0.627-0.052 0.848-0.252 0.222-0.64 0.202-0.866-0.046-0.003-0.004-0.007-0.008-0.010-0.011-0.132-0.144-0.272-0.281-0.419-0.411-0.003-0.003-0.006-0.007-0.009-0.010-0.252-0.222-0.274-0.604-0.049-0.852zM7.031 21.736c0.339 0 0.614 0.27 0.614 0.604s-0.275 0.604-0.614 0.604h-0.285c-0.099 0-0.197 0.001-0.294 0.006-0.005 0-0.011 0.001-0.016 0.001-0.338 0.018-0.626-0.236-0.645-0.569s0.239-0.617 0.576-0.636c0.125-0.007 0.252-0.010 0.379-0.010h0.285zM23.071 21.746c0.338 0.019 0.596 0.303 0.578 0.636s-0.307 0.587-0.645 0.569c-0.006-0-0.012-0.001-0.018-0.001-0.097-0.005-0.194-0.006-0.292-0.006h-0.285c-0.338-0-0.613-0.271-0.614-0.604s0.275-0.604 0.614-0.604h0.285c0.126 0 0.253 0.003 0.377 0.010zM11.019 21.736c0.338 0 0.613 0.271 0.613 0.604s-0.274 0.603-0.613 0.604h-0.57c-0.338-0-0.614-0.271-0.614-0.604s0.275-0.604 0.614-0.604h0.57zM15.005 21.736c0.339 0 0.614 0.27 0.614 0.604s-0.275 0.604-0.614 0.604h-0.57c-0.338-0-0.614-0.271-0.614-0.604s0.275-0.604 0.614-0.604h0.57zM18.991 21.736c0.339 0 0.614 0.27 0.614 0.604s-0.275 0.604-0.614 0.604h-0.57c-0.338-0-0.612-0.271-0.612-0.604s0.274-0.603 0.612-0.604h0.57zM14.995 15.694c0.339-0.012 0.624 0.248 0.636 0.581s-0.252 0.613-0.59 0.625c-0.107 0.004-0.214 0.006-0.321 0.006s-0.215-0.002-0.321-0.006c-0.338-0.012-0.602-0.292-0.59-0.625s0.298-0.593 0.636-0.581c0.091 0.003 0.183 0.004 0.275 0.004s0.184-0.001 0.275-0.004zM9.959 14.779c0.18-0.282 0.558-0.367 0.845-0.19 0.155 0.096 0.315 0.187 0.477 0.271 0.299 0.156 0.413 0.522 0.255 0.816s-0.53 0.407-0.829 0.251c-0.189-0.099-0.376-0.204-0.556-0.316-0.287-0.178-0.373-0.55-0.193-0.832zM18.636 14.589c0.287-0.177 0.665-0.092 0.845 0.19s0.094 0.655-0.192 0.832c-0.181 0.112-0.367 0.217-0.556 0.316-0.299 0.155-0.67 0.043-0.829-0.251s-0.044-0.66 0.255-0.816c0.162-0.085 0.323-0.175 0.478-0.271zM7.383 11.588c0.299-0.156 0.67-0.043 0.829 0.251 0.086 0.16 0.179 0.316 0.276 0.469 0.18 0.282 0.093 0.655-0.194 0.832s-0.665 0.092-0.845-0.19c-0.114-0.178-0.221-0.36-0.321-0.546-0.158-0.295-0.044-0.66 0.255-0.816zM21.229 11.839c0.158-0.294 0.529-0.407 0.829-0.251s0.413 0.522 0.255 0.816c-0.1 0.186-0.208 0.369-0.321 0.546-0.18 0.282-0.558 0.367-0.845 0.19s-0.374-0.55-0.194-0.832c0.098-0.153 0.19-0.309 0.276-0.469zM6.774 7.555c0.338 0.012 0.604 0.293 0.591 0.626-0.003 0.090-0.005 0.181-0.005 0.271s0.002 0.181 0.005 0.271c0.012 0.333-0.253 0.614-0.591 0.626s-0.623-0.248-0.635-0.581c-0.004-0.105-0.005-0.211-0.005-0.316s0.001-0.211 0.005-0.316c0.013-0.333 0.297-0.593 0.635-0.581zM22.666 7.555c0.338-0.012 0.622 0.249 0.635 0.581 0.004 0.105 0.005 0.211 0.005 0.316s-0.001 0.211-0.005 0.316c-0.012 0.333-0.297 0.593-0.635 0.581s-0.604-0.293-0.591-0.626c0.003-0.090 0.005-0.181 0.005-0.271s-0.002-0.181-0.005-0.271c-0.012-0.333 0.253-0.614 0.591-0.626zM7.449 3.955c0.18-0.282 0.559-0.367 0.845-0.19s0.374 0.55 0.194 0.833c-0.098 0.153-0.19 0.31-0.276 0.47-0.159 0.294-0.53 0.407-0.829 0.251s-0.413-0.522-0.255-0.816c0.1-0.187 0.207-0.37 0.321-0.547zM21.146 3.765c0.286-0.177 0.665-0.092 0.845 0.19 0.114 0.178 0.221 0.361 0.321 0.548 0.158 0.295 0.044 0.66-0.255 0.816s-0.67 0.043-0.829-0.251c-0.086-0.16-0.179-0.317-0.276-0.47-0.18-0.282-0.093-0.655 0.194-0.833zM10.707 0.979c0.299-0.156 0.67-0.043 0.829 0.251s0.044 0.66-0.255 0.816c-0.162 0.085-0.322 0.175-0.477 0.271-0.286 0.177-0.665 0.092-0.845-0.19s-0.094-0.655 0.193-0.833c0.181-0.112 0.367-0.217 0.556-0.316zM17.904 1.23c0.158-0.294 0.53-0.407 0.829-0.251 0.189 0.099 0.376 0.204 0.556 0.316 0.287 0.178 0.373 0.55 0.192 0.833s-0.558 0.367-0.845 0.19c-0.155-0.096-0.315-0.187-0.478-0.271-0.299-0.156-0.413-0.522-0.255-0.816zM15.041 0.006c0.338 0.012 0.602 0.292 0.59 0.625s-0.298 0.594-0.636 0.581c-0.091-0.003-0.183-0.005-0.275-0.005s-0.184 0.002-0.275 0.005c-0.338 0.012-0.624-0.248-0.636-0.581s0.252-0.613 0.59-0.625c0.107-0.004 0.214-0.006 0.321-0.006s0.215 0.002 0.321 0.006z"></path>
</symbol>
<symbol id="icon-plus" viewBox="0 0 32 32">
<path  d="M17.231 1.231v13.538h13.538c0.326 0 0.639 0.13 0.87 0.361s0.36 0.544 0.36 0.87-0.13 0.639-0.36 0.87c-0.231 0.231-0.544 0.36-0.87 0.36h-13.538v13.538c0 0.326-0.13 0.639-0.36 0.87s-0.544 0.36-0.87 0.36-0.639-0.13-0.87-0.36c-0.231-0.231-0.361-0.544-0.361-0.87v-13.538h-13.538c-0.326 0-0.639-0.13-0.87-0.36s-0.36-0.544-0.36-0.87c0-0.326 0.13-0.639 0.36-0.87s0.544-0.361 0.87-0.361h13.538v-13.538c0-0.326 0.13-0.639 0.361-0.87s0.544-0.36 0.87-0.36c0.326 0 0.639 0.13 0.87 0.36s0.36 0.544 0.36 0.87z"></path>
</symbol>
<symbol id="icon-minus" viewBox="0 0 15 1">
  <path d="M14.3182 0C14.499 0 14.6724 0.052678 14.8003 0.146446C14.9282 0.240214 15 0.367392 15 0.5C15 0.632608 14.9282 0.759786 14.8003 0.853554C14.6724 0.947322 14.499 1 14.3182 1H0.681818C0.500989 1 0.327566 0.947322 0.1997 0.853554C0.0718343 0.759786 0 0.632608 0 0.5C0 0.367392 0.0718343 0.240214 0.1997 0.146446C0.327566 0.052678 0.500989 0 0.681818 0H14.3182Z"/>
</symbol>
<symbol id="icon-refresh" viewBox="0 0 32 32">
<path  d="M22.095 6.095h4.435c-1.984-2.117-4.558-3.588-7.389-4.222s-5.787-0.402-8.484 0.666c-2.697 1.068-5.010 2.923-6.639 5.324s-2.498 5.236-2.494 8.136c0 0.202-0.080 0.396-0.223 0.539s-0.337 0.223-0.539 0.223-0.396-0.080-0.539-0.223c-0.143-0.143-0.223-0.337-0.223-0.539-0.002-3.179 0.944-6.287 2.716-8.927s4.292-4.69 7.237-5.89c2.944-1.2 6.179-1.495 9.292-0.848s5.962 2.209 8.183 4.483v-4.057c0-0.202 0.080-0.396 0.223-0.539s0.337-0.223 0.539-0.223 0.396 0.080 0.539 0.223c0.143 0.143 0.223 0.337 0.223 0.539v6.095c0 0.1-0.020 0.199-0.058 0.292s-0.094 0.176-0.165 0.247c-0.071 0.071-0.155 0.127-0.247 0.165s-0.192 0.058-0.292 0.058h-6.095c-0.202 0-0.396-0.080-0.539-0.223s-0.223-0.337-0.223-0.539 0.080-0.396 0.223-0.539c0.143-0.143 0.337-0.223 0.539-0.223zM31.238 15.238c-0.1-0-0.199 0.020-0.292 0.058s-0.176 0.094-0.247 0.165c-0.071 0.071-0.127 0.155-0.165 0.247s-0.058 0.192-0.058 0.292c0.004 2.901-0.865 5.736-2.494 8.137s-3.942 4.255-6.639 5.324c-2.697 1.068-5.653 1.3-8.484 0.666s-5.405-2.105-7.389-4.222h4.435c0.202 0 0.396-0.080 0.539-0.223s0.223-0.337 0.223-0.539-0.080-0.396-0.223-0.539c-0.143-0.143-0.337-0.223-0.539-0.223h-6.095c-0.1 0-0.199 0.020-0.292 0.058s-0.176 0.094-0.247 0.165c-0.071 0.071-0.127 0.155-0.165 0.247s-0.058 0.192-0.058 0.292v6.095c0 0.202 0.080 0.396 0.223 0.539s0.337 0.223 0.539 0.223 0.396-0.080 0.539-0.223c0.143-0.143 0.223-0.337 0.223-0.539v-4.057c2.221 2.275 5.070 3.836 8.183 4.483s6.348 0.352 9.292-0.848c2.944-1.2 5.464-3.251 7.237-5.89s2.719-5.747 2.716-8.927c0-0.1-0.020-0.199-0.058-0.292s-0.094-0.176-0.165-0.247c-0.071-0.071-0.155-0.127-0.247-0.165s-0.192-0.058-0.292-0.058z"></path>
</symbol>
<symbol id="icon-star-empty" viewBox="0 0 32 32">
<path  d="M31.898 11.954c-0.126-0.405-0.38-0.759-0.723-1.009s-0.758-0.382-1.183-0.378h-8.661c-0.163 0.001-0.321-0.051-0.452-0.147s-0.228-0.232-0.276-0.387l-2.684-8.619c-0.127-0.41-0.383-0.768-0.728-1.022s-0.763-0.392-1.193-0.392c-0.429 0-0.847 0.137-1.193 0.392s-0.601 0.613-0.728 1.022l-2.684 8.619c-0.048 0.155-0.145 0.291-0.276 0.387s-0.29 0.148-0.452 0.147h-8.661c-0.424-0-0.836 0.134-1.179 0.383s-0.597 0.601-0.727 1.004c-0.13 0.403-0.129 0.837 0.003 1.239s0.388 0.753 0.732 1l6.728 4.853c0.125 0.091 0.22 0.218 0.272 0.364s0.058 0.305 0.018 0.454l-2.635 9.593c-0.111 0.405-0.092 0.835 0.053 1.229s0.411 0.732 0.759 0.968c0.348 0.235 0.761 0.356 1.181 0.345s0.826-0.154 1.161-0.407l7.168-5.435c0.133-0.1 0.295-0.154 0.461-0.154s0.328 0.054 0.461 0.154l7.168 5.435c0.335 0.254 0.741 0.396 1.161 0.407s0.833-0.11 1.181-0.345c0.348-0.236 0.613-0.574 0.759-0.969s0.164-0.824 0.053-1.229l-2.634-9.59c-0.041-0.15-0.035-0.309 0.017-0.455s0.147-0.274 0.272-0.365l6.728-4.853c0.347-0.245 0.606-0.595 0.739-0.998s0.131-0.839-0.004-1.242zM30.271 12.959l-6.728 4.853c-0.377 0.273-0.662 0.655-0.817 1.094s-0.173 0.915-0.051 1.364l2.634 9.59c0.027 0.098 0.023 0.202-0.012 0.297s-0.099 0.177-0.183 0.235c-0.084 0.057-0.184 0.087-0.286 0.084s-0.2-0.037-0.281-0.098l-7.168-5.435c-0.398-0.3-0.883-0.463-1.382-0.463s-0.984 0.163-1.382 0.463l-7.168 5.435c-0.081 0.061-0.179 0.095-0.281 0.098s-0.201-0.027-0.285-0.083-0.148-0.139-0.184-0.234c-0.035-0.095-0.040-0.199-0.013-0.297l2.635-9.593c0.121-0.449 0.104-0.925-0.051-1.363s-0.44-0.82-0.816-1.093l-6.728-4.853c-0.082-0.059-0.143-0.143-0.175-0.239s-0.032-0.2-0.001-0.296c0.031-0.096 0.092-0.18 0.174-0.24s0.181-0.092 0.282-0.092h8.662c0.488 0.002 0.964-0.153 1.357-0.443s0.683-0.697 0.827-1.163l2.684-8.619c0.031-0.099 0.093-0.186 0.176-0.247s0.185-0.095 0.289-0.095 0.205 0.033 0.289 0.095c0.084 0.062 0.145 0.148 0.176 0.247l2.684 8.619c0.144 0.466 0.434 0.874 0.827 1.163s0.869 0.444 1.357 0.443h8.661c0.101 0 0.2 0.032 0.282 0.092s0.143 0.144 0.174 0.24c0.031 0.096 0.031 0.2-0.001 0.296s-0.093 0.18-0.175 0.239z"></path>
</symbol>
<symbol id="icon-star-filled" viewBox="0 0 32 32">
<path  d="M31.898 11.954c-0.126-0.405-0.38-0.759-0.723-1.009s-0.758-0.382-1.183-0.378h-8.661c-0.163 0.001-0.321-0.051-0.452-0.147s-0.228-0.232-0.276-0.387l-2.684-8.619c-0.127-0.41-0.382-0.768-0.728-1.022s-0.763-0.392-1.193-0.392c-0.429 0-0.847 0.137-1.193 0.392s-0.601 0.613-0.728 1.022l-2.684 8.619c-0.048 0.155-0.145 0.291-0.276 0.387s-0.29 0.148-0.452 0.147h-8.661c-0.424-0-0.836 0.134-1.179 0.383s-0.597 0.601-0.727 1.004c-0.13 0.403-0.129 0.837 0.003 1.239s0.388 0.753 0.732 1l6.728 4.853c0.125 0.091 0.22 0.218 0.272 0.364s0.058 0.305 0.018 0.454l-2.635 9.593c-0.111 0.405-0.092 0.835 0.053 1.229s0.411 0.732 0.759 0.968c0.348 0.235 0.761 0.356 1.181 0.345s0.826-0.154 1.161-0.407l7.168-5.435c0.133-0.1 0.295-0.154 0.461-0.154s0.328 0.054 0.461 0.154l7.168 5.435c0.335 0.254 0.741 0.396 1.161 0.407s0.833-0.11 1.181-0.345c0.348-0.236 0.613-0.574 0.759-0.969s0.164-0.824 0.053-1.229l-2.634-9.59c-0.041-0.15-0.035-0.309 0.017-0.455s0.147-0.274 0.272-0.365l6.728-4.853c0.347-0.245 0.606-0.595 0.739-0.998s0.131-0.839-0.004-1.242z"></path>
</symbol>
<symbol id="icon-tick" viewBox="0 0 42 32">
<path  d="M41.6 2.909c-0 0.377-0.072 0.751-0.214 1.102s-0.352 0.671-0.617 0.942l-25.611 26.183c-0.266 0.271-0.583 0.488-0.934 0.637s-0.731 0.227-1.114 0.227c-0.383 0-0.762-0.077-1.114-0.227s-0.67-0.366-0.936-0.637l-10.262-10.494c-0.52-0.551-0.803-1.281-0.797-2.033l0.016-0.28c0.068-0.65 0.352-1.266 0.816-1.741l0.208-0.192c0.505-0.424 1.145-0.666 1.816-0.672s1.315 0.225 1.828 0.641l0.211 0.189 0.011 0.009 0.009 0.009 8.195 8.378 23.561-24.087c0.266-0.272 0.583-0.488 0.934-0.637s0.731-0.226 1.114-0.227l0.288 0.014c0.284 0.029 0.563 0.101 0.827 0.212 0.352 0.149 0.669 0.367 0.934 0.639 0.199 0.204 0.369 0.434 0.5 0.684l0.119 0.258 0.092 0.266c0.080 0.271 0.122 0.553 0.122 0.836z"></path>
</symbol>
<symbol id="icon-users" viewBox="0 0 32 32">
<path d="M11.429 0c-1.658 0-3.278 0.492-4.656 1.412s-2.452 2.23-3.087 3.761c-0.634 1.531-0.8 3.217-0.477 4.842s1.122 3.119 2.294 4.291c1.172 1.172 2.665 1.97 4.291 2.294s3.311 0.157 4.842-0.477c1.531-0.634 2.84-1.708 3.761-3.087s1.412-2.999 1.412-4.656c-0.003-2.222-0.886-4.352-2.458-5.923s-3.701-2.455-5.923-2.458zM11.429 15.238c-1.356 0-2.682-0.402-3.81-1.156s-2.007-1.824-2.526-3.077c-0.519-1.253-0.655-2.632-0.39-3.962s0.918-2.552 1.877-3.511c0.959-0.959 2.181-1.612 3.511-1.877s2.709-0.129 3.962 0.39c1.253 0.519 2.324 1.398 3.077 2.526s1.156 2.453 1.156 3.81c-0.002 1.818-0.725 3.561-2.011 4.847s-3.028 2.009-4.846 2.011zM0 31.238v-3.048c0.002-1.818 0.725-3.561 2.011-4.846s3.029-2.009 4.847-2.011h9.143c1.818 0.002 3.561 0.725 4.846 2.011s2.009 3.028 2.011 4.846v3.048c0 0.202-0.080 0.396-0.223 0.539s-0.337 0.223-0.539 0.223-0.396-0.080-0.539-0.223c-0.143-0.143-0.223-0.337-0.223-0.539v-3.048c-0.002-1.414-0.564-2.77-1.564-3.769s-2.355-1.562-3.769-1.564h-9.143c-1.414 0.002-2.77 0.564-3.769 1.564s-1.562 2.355-1.564 3.769v3.048c0 0.202-0.080 0.396-0.223 0.539s-0.337 0.223-0.539 0.223-0.396-0.080-0.539-0.223c-0.143-0.143-0.223-0.337-0.223-0.539zM19.81 16c0-0.1 0.020-0.199 0.058-0.292s0.094-0.176 0.165-0.247c0.071-0.071 0.155-0.127 0.247-0.165s0.192-0.058 0.292-0.058c1.819 0 3.563-0.722 4.849-2.008s2.008-3.030 2.008-4.849c0-1.819-0.722-3.563-2.008-4.849s-3.030-2.008-4.849-2.008c-0.202 0-0.396-0.080-0.539-0.223s-0.223-0.337-0.223-0.539 0.080-0.396 0.223-0.539c0.143-0.143 0.337-0.223 0.539-0.223 2.223 0 4.354 0.883 5.926 2.455s2.455 3.703 2.455 5.926-0.883 4.354-2.455 5.926c-1.572 1.572-3.703 2.455-5.926 2.455-0.1 0-0.199-0.020-0.292-0.058s-0.176-0.094-0.247-0.165c-0.071-0.071-0.127-0.155-0.165-0.247s-0.058-0.192-0.058-0.292zM30.476 31.238v-3.048c-0.002-1.414-0.564-2.77-1.564-3.769s-2.355-1.562-3.769-1.564c-0.202 0-0.396-0.080-0.539-0.223s-0.223-0.337-0.223-0.539 0.080-0.396 0.223-0.539c0.143-0.143 0.337-0.223 0.539-0.223 1.818 0.002 3.561 0.725 4.846 2.011s2.009 3.028 2.011 4.846v3.048c0 0.202-0.080 0.396-0.223 0.539s-0.337 0.223-0.539 0.223-0.396-0.080-0.539-0.223c-0.143-0.143-0.223-0.337-0.223-0.539z"></path>
</symbol>
</defs>
</svg>
